/* XPM */
static char *c5f965272f294c0dece09f9c80d9ec73kJaiIRy29hMSl36e[] = {
/* columns rows colors chars-per-pixel */
"64 64 108 2 ",
"   c #449CCC",
".  c #47A1CE",
"X  c #47A3D3",
"o  c #49A5D4",
"O  c #4BA9D6",
"+  c #49A7D8",
"@  c #4DADDA",
"#  c #50AED6",
"$  c #51AFDA",
"%  c #4EB2DD",
"&  c #52B4DD",
"*  c #59B6DD",
"=  c #55B8DF",
"-  c #5ABADF",
";  c #62BBDE",
":  c #6DBFDE",
">  c #4FB5E0",
",  c #52B6E0",
"<  c #59B7E0",
"1  c #55BAE2",
"2  c #5BBDE3",
"3  c #5DBDE5",
"4  c #5CBFE4",
"5  c #5CBFE6",
"6  c #57BDE8",
"7  c #62BDE1",
"8  c #61BEE2",
"9  c #62BFE2",
"0  c #60BFE4",
"q  c #57C0E6",
"w  c #5DC0E3",
"e  c #5DC1E3",
"r  c #5DC1E5",
"t  c #5FC0E5",
"y  c #5FC2E5",
"u  c #5DC3E8",
"i  c #60C1E3",
"p  c #62C1E2",
"a  c #65C1E2",
"s  c #66C1E3",
"d  c #63C1E4",
"f  c #61C3E4",
"g  c #65C2E5",
"h  c #66C3E4",
"j  c #66C3E7",
"k  c #61C5E6",
"l  c #62C5E6",
"z  c #66C4E6",
"x  c #68C0E3",
"c  c #68C5E4",
"v  c #6AC5E6",
"b  c #69C7E7",
"n  c #6CC6E4",
"m  c #66C8E7",
"M  c #6ACAE5",
"N  c #6DC8E6",
"B  c #62C1E9",
"V  c #64C6E9",
"C  c #66C6E9",
"Z  c #69C7E8",
"A  c #67CAE9",
"S  c #66C8EA",
"D  c #6ACAE9",
"F  c #6DC8E8",
"G  c #6FC9E8",
"H  c #6CC9EB",
"J  c #6CCAEA",
"K  c #6ECEEA",
"L  c #71C7E5",
"P  c #70C8E7",
"I  c #72C9E7",
"U  c #74CBE7",
"Y  c #7BCBE7",
"T  c #72CAE8",
"R  c #74CAE8",
"E  c #71CDE9",
"W  c #73CCEA",
"Q  c #73CFEB",
"!  c #75CCEA",
"~  c #79C9E9",
"^  c #7ACDE8",
"/  c #7ACEEA",
"(  c #6FD0EE",
")  c #76D0ED",
"_  c #75D2EE",
"`  c #7AD1EA",
"'  c #78D1EC",
"]  c #79D1ED",
"[  c #7ED1ED",
"{  c #73D0F0",
"}  c #7CD5F1",
"|  c #80CFE9",
" . c #82CFEA",
".. c #87D2EA",
"X. c #83D4ED",
"o. c #85D6EE",
"O. c #8AD6ED",
"+. c #8CD9EF",
"@. c #93DBEF",
"#. c #9ADEEF",
"$. c #84D6F0",
"%. c #87D9F0",
"&. c #8EDAF1",
"*. c #8FDBF1",
"=. c #93DCF1",
"-. c #9ADDF1",
";. c #A7E6F6",
":. c #C3EFF8",
/* pixels */
"2 & O & = $   X   : ; . * 2 2 @ O f ` / n & & & O & & & 2 2 = , v = o < * < 4 - ; $ $ * < - 0 F , , @ @ , @ 9 7 < ! Q , @ @ # @ ",
"7 % o & - & O 4 ; & * f f M & & e * & & M b = & & & - # & 2 U 7 * 7 0 h Z 2 & & & < & O * 9 0 5 5 3 5 0 v P ..v = u 0 & O # - @ ",
"# O & - l l 2 = 2 1 b O.F h * 2 m & & = ! N & , , & 1 1 O @ 7 s T / ~ % 4 / ; ; 4 ! v $ $ 4 3 1 6 1 h 4 T 2 , 2 1 V 2 - = & f 4 ",
"O & ; O 2 1 % & = O & 9 N = % 1 t 2 % % e 2 & 1 1 q 1 h & @ s / 3 0 < + , / 7 & < * 9 & < Z 0 1 , , , , 2 4 , @ & 4 = 4 # O @ @ ",
"& U ; O = & & O O o @ , 1 @ , l f F 2 % , = 2 7 1 t y l & % * h 2 T F $ < < 4 h 0 = $ < 4 H =.9 , , @ @ , 4 @ o O - = % & O O O ",
"- - & h e = , $ # $ - = - , , E _ _ t % 1 2 4 b w w A 2 @ % $ - 7 f 7 $ $ % , h < @ & & < < $., o o @ & , , @ @ @ f & + & # O & ",
"@ @ = 2 e t & f 4 = , * - % 2 t t = e - % & & & , 1 w 1 @ O X o * $ , @ + @ ,  ./ * + < & $ / < o X & , , 4 3 @ & 2 = % 1 e % 2 ",
"- f f = 2 7 4 b 2 @ o = $ @ M 4 & , 2 E - @ @ & 1 A u , O O X X & 2 , , $ o @ &.;.7 @ , 3 @ 0 v @ & , $ @ 1 ! Z , , % % 1 2 = & ",
"e v & 2 B f h h / 7 O & & & h 4 , , 2 V l & 1 @ $ 2 2 0 < & @ < c 7 @ @ , @ $ < 7 : $ & 4 H V V 2 % % , > u X.h 1 2 1 % 6 2 , @ ",
"* h & 2 t z f 7 / b = 4 - - - 4 1 , , 2 z t 7 & @ , & @ , , 4 Z | * o $ < & < * 0 0 < 0 $.W 3 & 2 2 , 1 , w t , , 1 4 2 B 0 ! h ",
"& - 7 * 4 - & ; ! 2 @ V f = = % @ % @ & % @ * D f & , 2 v 7 , < 7 L 3 Z 0 < F Q 9 0 0 / -.< + @ % 1 q , , u 3 4 , @ @ , , 2 X.v ",
"@ o v b b 7 o O @ & , v U 2 7 b & @ @ , h & % 2 0 V B T * + % , V v & * 0 0 j Z / H < $ < , @ @ @ , , % t { 1 & = & @ & - = h 4 ",
"@ # = 4 h f < & & & % U ! & 7 ; & 1 2 s h $ & , u A V 4 $ , @ 7 v < & 2 9 7 < , 6 6 > @ @ , Z 3 t D 2 1 D & @ @ @ * & 4 & & u = ",
"O & 1 b ! * b 2 , * 2 $ X X 2 & % & @ $ 1 = , D ! H H 4 @ , , F < 7 b 6 4 * , , 6 6 0 j 4 , $.{ l 2 @ % u @ o o O @ $ & o & 2 1 ",
"& # s f 2 2 2 # @ v n ; * - v 2 % X X + & < , 2 0 , 3 @ $ b b 7 B V 4 , ] Z , 6 u 1 3 F 5 4 Z 1 % @ 2 B l > @ o @ & & 4 1 & , 2 ",
"$ * & O $ U b f v X.b # 4 s Z h * O X O & O , B Z @ , , 3 U 7 v & 1 , % H ! @ < 1 , @ , 3 1 4 C , & l A u 4 2 @ f T 1 4 7 @ @ 2 ",
"o o @ = & - n 2 U ! U $ O o O & 2 2 l & % = E J / u 2 u , @ , = > , % @ 6 $.< @ 1 6 @ , , > 1 { , + 1 6 q u t l A [ 2 2 s = 1 = ",
"# # O % & @ = s z - - @ @ % @ % 1 t D t 1 7 M l 4 3 V / 0 4 0 & , 6 @ @ < 3 3 , , 1 @ @ > > 1 J 1 1 6 1 & e e 1 = 1 1 M [ z 1 , ",
"#.L * % = % - ! = o - b = & & @ O = l D & @ 2 e % , B 1 , 1 1 1 u B 3 % , @ 0 F @ @ @ @ % > 2 T 4 4 H 4 e q @ @ o = h ^ l 2 1 1 ",
"@.@.: @ = O - * o o 2 9 ; $ > @ @ , ` [ 4 e l f 4 h 1 @ @ , 2 2 6 4 4 6 , , 2 3 v < 1 4 1 u , h 2 , P 2 6 , & @ o & E n % % % 1 ",
"; * o % @ O & X X o 1 2 O O , t f e & & & 2 & 1 4 4 , , % , , 1 1 % , 6 , 2 ! < Z M V F V b % Z 9 % > > 2 , , & = t _ 1 @ % % 1 ",
"! n 2 = = & - & O o & f & % A A E s % % % t 1 , > @ 1 0 l 3 u H 1 > 1 T j 3 4 3 M B u A 0 2 , h u 1 6 q Z u t , 1 N l , % @ % % ",
"O = 1 = 4 2 * f U * - 2 e e t 1 , , & 1 , A 1 1 , , B { } } A D , t 4 @ @ < 4 5 f , l H u V 4 , , 1 6 6 1 1 6 , 2 D 2 , , , @ o ",
"% @ % f % & e f ` b 1 z m l l 1 % @ % % q u 1 @ $ F Z V H 4 3 3 t M u @ @ % > 4 @ @ 1 %.u 4 Z @ @ , 1 1 > @ & F 1 1 l 2 , t = @ ",
"@ = = 1 = , , m U & > 2 D ( ( l & & & & e A A t z t % % > 1 H 1 @ @ 2 1 1 f 2 1 > 1 1 H l u 4 & < h E & $ & * / 1 % & 2 D f V 4 ",
"& - & @ O & 1 = O O % , 1 1 %.' 2 2 4 v / [ _ , & t 1 > , 1 6 V w 7 < , 2 T { 1 1 1 1 4 J 3 & & @ = 4 h h 2 @ & 2 , , & 2 , u V ",
"v f @ % % 1 t % o @ O & , % z l 2 = = & @ U F % % f 2 2 0 C , > & 4 / 4 , , 2 l 1 > , , D 1 @ @ % , & , t , o & s M E 2 , & , t ",
"= s - = % , w & @ % % 1 & 1 l - o @ % & % M @.1 , % + % > 4 $ @ @ @ b 7 @ @ 0 Z > , , 1 &.} 2 , 1 V _ t q % X 2 M T E 2 @ @ 1 , ",
"- s = 2 7 z 1 & & % % & e e N = @ % % , 4 l ` ` Q 2 @ @ > , u & & 4 { f > > ! F % , , q ! 5 l K u V u 4 f 1 & 2 E { H & @ 4 4 @ ",
"- O @ = & ; w % @ % & e z t - 2 h 1 1 u 4 w q N 2 1 , 2 1 , u 4 1 V V 4 , , / 7 % @ @ , , , 1 l A 1 @ @ t 1 @ % , l F & 4 u & @ ",
"s * @ % O % 2 2 w t m - % % z X.} D t 1 > l l z 2 > @ , u 1 u , $ , , 1 , u } B % @ @ @ @ @ , A h @ @ @ 2 l , , 2 f D 1 , t = @ ",
"n - o O @ % z _ X.N l % % 1 = - ! 4 > , 1 4 < 6 2 , @ @ 1 D Q u B 4 1 , , 4 =.! 1 5 @ @ o @ & 4 Z @ @ B m _ t , 6 V D 4 t T X.! ",
"X.f @ & - 2 m - & % - 1 , 1 2 @ 2 f , 2 f @ % 1 Q , 1 1 4 J A { _ V t , % 1 D / , 2 s b - * B 1 f 2 l K t ( t & = y w , , > $.:.",
"A s $ l M M q t = @ - m 1 2 @ % 1 D 1 O 7 h t z ] w % , , t u t 4 1 f l & & & V & % % U -.D J D t V F B t f & % , e & , > > 2 ' ",
"V 1 @ & % 2 1 1 l - & h 1 2 V , = 1 w O * D _ F A ! w u q 1 t , & @ & z 1 = , f f % @ & 2 2 u u > B f 1 u A = 1 1 q e l y q 6 w ",
"l / 2 % @ @ , t q & = 1 1 1 U ` 6 1 t @ % 1 l D A K A u > u V u u 4 4 1 h 2 4 2 4 v & % , , t 1 , u u 1 1 , = = u A +.) S q , % ",
"& ..n & @ & 2 2 e 2 2 4 & & t %.1 l ` ; & , % , , 1 , l f ! A 1 q q , 1 E X.2 & 1 ` z 4 w 1 t , t f = % = = = q E 4 7 4 1 1 , % ",
"@ b U 2 - n e = & 2 t h & % 2 D z f U e A 1 , , 1 1 > 1 1 u , D A q & , 1 M _ F u 1 z E 1 w O.T & % 1 1 = % @ q F h @ % t V 1 u ",
"@ 7 / b $ - f b y = t F N l ) J u e , , D J 6 1 w l j D @ % , A _ A t , 1 1 J V 1 , D } q 1 A f @ @ % , % % 1 u t J F 1 M _ u u ",
"2 n 2 & % = 2 z e l t _ D A D 1 = e 1 , , t A W 1 & & 4 h f V V u u u , , t l < % % 1 S , 1 1 A 1 @ & t 1 u , u } %.X.& & q > % ",
"t 2 2 1 % 2 t t l f n n e & 2 1 E = 4 , , q t J < @ & , B t u A u q e e F M q 1 , , A m f t , 1 u 6 t u F l & % l %.M & 1 2 & % ",
"q q f A f F t t M J h - M - = 1 E e f t 1 u 1 t Z @ @ @ E J u u t q q u } D q t t 1 D A 4 A 1 % % > w u u , % % = 1 % , 1 @ % , ",
"t w l w e % & , & = = q +.^ n z 2 1 1 % 2 l & 2 W 6 4 u F 1 u A l q q A X.o.l q & 2 ) $.o.u 2 1 = 1 u A ( t f E , & 4 u t V U 2 ",
"& e 4 2 f @ % > % % q q 2 e l l l 1 l - 1 V 2 1 Q { H S 1 , u A A 1 & q 4 F _ 1 & _ _ l D , & = 1 y t _ _ _ +.X.2 h B t u h -.U ",
"& [ t q B 2 @ & % = t = % % e t z = f & @ 2 u , A D A A u 1 w u 1 , % % % % F l , ! b @ 2 1 % % 1 y A V D X.! t t 2 1 h t 2 f f ",
"e [ 1 q t e - - = & - % O % t e N & 1 h 2 t u , 1 u K u , > , 1 1 w 2 , t u l D A 1 l = 2 & @ % 1 w l w = 2 e f ( t u $.M , > , ",
"& l t 1 & @ @ % = q 1 , % = ( m = % 1 ` 2 , u 1 u l l & , , , A _ *.[ t A A u l u B A u f o O = F D l > , , , , = l V F , , % > ",
"2 D l M @ % % O = q = 1 f _ z q = 1 D F f f f V A t , % % 4 F 4 M _ t 1 , J [ t , u J ] h 2 2 ! *.{ l , 1 , 1 1 , l E 4 2 1 % > ",
"[ N A _ s & & 1 = 1 = 1 u T f - w , t 2 2 J 2 1 A A u , , z f 1 u S q t l F / o.e q t f % 6 u { D D J J 1 1 A q % , 2 z 1 e & & ",
"e & f N 4 , = t b f s f 2 f = & 2 z J t % l D t A q t z 7 Z T D H , w 1 4 = = X.e & z w % q J H 6 & > V 1 , 1 , w 1 , e t f 7 z ",
"& % = E - - 2 1 % * - O % n 6 % 1 _ F e 2 l 1 1 z A 1 t , % 4 A A l , % @ @ % ! z % t u , 1 u A % % % 2 y q t t A w D [ t 2 , 2 ",
"% & b / s - U f & ; [ f h h - e u 1 , 1 1 l 1 , , , t D , > F T 1 l 7 @ @ @ t 4 1 % 1 , 1 q , A , , V 1 1 t 2 - $._ A l 1 2 z / ",
"l f n v , & = N D z _ X.h O % h A 1 & % 1 1 1 V q 1 ] / > > ] F , w H f > 2 2 % 1 t z 2 A A t q , 2 S D V 4 1 2 A u 1 V ' D $./ ",
"e 2 @ & 2 l = @ 2 e 1 _ n % & e ! A 1 % , u 1 f t e f j , > F F 1 1 1 A 2 2 4 4 e D [ N t 1 % = & , f V 4 4 2 t 2 1 1 0 T - 7 h ",
"l b b @ 7 Y & & t _ 2 y D y A q A _ V % , C K B = O @ l B 4 D j @ > q { H > & Z D ' ) J u 1 , & % l ! l , , 1 l & % 1 1 @ @ , X.",
"l E n @ - U % 2 t b e l l l y A [ 2 t u , u V H f h 1 2 _ [ D u > 1 S $.{ 4 t V l M ( t V V l u 1 D f t % , H E , % 4 2 % & 4 ! ",
"z s = = s e % % , m h = = t 4 _ } t % w f 2 0 C 1 t D 1 l ! / F , , B D D $.! 1 1 1 u t ! 2 1 2 t ! D ! q = u _ l , U U & = 1 e ",
"2 % % n ; - s % % l z , , , 4 D V t = , e & 4 F h Z J E f , Z h @ @ , 1 K K B u A 6 u l t % @ & t [ ] z ( M y A z % % s s = , & ",
"O = - = & & z = - 7 M A t , = 1 2 t & $ 2 h 4 * < 4 2 v 3 + 4 b 1 @ > 0 V f V S _ ( _ A t 1 1 f 2 2 l B #.E = % 2 2 % 2 N = 6 l ",
"; f h 2 = 2 U X.& O & 2 % % - Z Z f 2 , = f h * , & @ @ 2 , j [ 2 , 2 f 1 % , u D H ) w t _ ` M @ % , l n 2 1 % @ 2 1 e N - = - ",
"Y c * - - = t N = % % % , f Z 7 - F M = & v h & & = = < b h 1 h _ t 6 , , u 4 ! E 2 F t , N z = % & t t 1 e e & = - f M e = % = ",
"* c & O = e e l s & = = A h = % 1 [ [ z 2 V h & = * 7 4 Z & % & l t u 1 , K ! &.] 1 t A t N e = , 2 A l e - e y q = n - % % = e ",
"* s & o = h 2 E ..n - & & = = % % z [ [ Z , & & b h & & D 1 @ & f 1 , 1 , V B B t y , w A M & 2 l y l X.A t U ..- = ; = # O t 2 ",
"- f - = % % = J U f = % % 1 2 % = N #.[ B & @ @ 2 2 1 2 4 2 7 ! f , , , u 4 @ , % t 1 & t = % % % t l E n f E ^ - - ` ; * f f # "
};
