/* XPM */
static char *result[] = {
/* columns rows colors chars-per-pixel */
"64 64 235 2 ",
"   c #020202",
".  c #070908",
"X  c #090B0A",
"o  c #090704",
"O  c #160C04",
"+  c #1E1207",
"@  c #161817",
"#  c #2C1C0C",
"$  c #231406",
"%  c #331E0B",
"&  c #1E221F",
"*  c #3D230B",
"=  c #35220F",
"-  c #3B2712",
";  c #2E2313",
":  c #353835",
">  c #303029",
",  c #43250B",
"<  c #4B2C0F",
"1  c #552F0E",
"2  c #58300F",
"3  c #452C15",
"4  c #532E11",
"5  c #493219",
"6  c #5B3412",
"7  c #54381C",
"8  c #593B1C",
"9  c #553518",
"0  c #4A300F",
"q  c #653914",
"w  c #6C3B14",
"e  c #633B19",
"r  c #643714",
"t  c #723D14",
"y  c #60380F",
"u  c #4D3A20",
"i  c #6B451A",
"p  c #787C19",
"a  c #716C17",
"s  c #5A4429",
"d  c #674422",
"f  c #774C25",
"g  c #7A5127",
"h  c #795733",
"j  c #6F5436",
"k  c #5B7923",
"l  c #577820",
"z  c #657A24",
"x  c #747728",
"c  c #767D38",
"v  c #4F401C",
"b  c #4E5350",
"n  c #6A7357",
"m  c #69776D",
"M  c #7D5C54",
"N  c #8D5B2C",
"B  c #85572A",
"V  c #945E2D",
"C  c #845D34",
"Z  c #97612F",
"A  c #8A6239",
"S  c #956231",
"D  c #9C6432",
"F  c #95683B",
"G  c #A56A36",
"H  c #AB6D36",
"J  c #AE6E38",
"K  c #A16733",
"L  c #B16F36",
"P  c #B16F38",
"I  c #AF7038",
"U  c #B07039",
"Y  c #8D5950",
"T  c #8E6A45",
"R  c #917456",
"E  c #A2675B",
"W  c #688628",
"Q  c #758C2C",
"!  c #7B8235",
"~  c #7B9937",
"^  c #6F8D30",
"/  c #7A8219",
"(  c #788A7F",
")  c #788640",
"_  c #8A8917",
"`  c #96971A",
"'  c #8F8F18",
"]  c #A19F1D",
"[  c #9EA11D",
"{  c #ABAB1A",
"}  c #A8A71C",
"|  c #B5B41A",
" . c #BCBB1C",
".. c #B8B719",
"X. c #AEAC15",
"o. c #878B27",
"O. c #8D9326",
"+. c #959923",
"@. c #889A39",
"#. c #969C3D",
"$. c #818637",
"%. c #86A43C",
"&. c #96A33A",
"*. c #ACAD25",
"=. c #A4A62A",
"-. c #A5A92C",
";. c #ABAC2B",
":. c #A4A823",
">. c #AEB02A",
",. c #B4B425",
"<. c #BBBB23",
"1. c #B3B32A",
"2. c #BCBC2C",
"3. c #B7B924",
"4. c #A3A733",
"5. c #A4AA34",
"6. c #AAAC32",
"7. c #A6AA3C",
"8. c #ABB13C",
"9. c #B7B934",
"0. c #C1BE18",
"q. c #C0BC28",
"w. c #BFC228",
"e. c #BEC13F",
"r. c #C4C21B",
"t. c #CCC81B",
"y. c #D0CD1C",
"u. c #D5D21D",
"i. c #DCD91E",
"p. c #E2DF1F",
"a. c #C4C425",
"s. c #CCCC24",
"d. c #C4C42C",
"f. c #CCCC2C",
"g. c #C7C825",
"h. c #D2CE26",
"j. c #D3D224",
"k. c #D9D624",
"l. c #DCDA23",
"z. c #D4D42B",
"x. c #D9D52D",
"c. c #DDDB2C",
"v. c #D7D92D",
"b. c #C6C733",
"n. c #D7D730",
"m. c #CED03A",
"M. c #E1DE23",
"N. c #E1DE2C",
"B. c #DEE137",
"V. c #E5E224",
"C. c #EAE524",
"Z. c #EEEA25",
"A. c #E6E32A",
"S. c #EAE62A",
"D. c #ECE929",
"F. c #F2EC26",
"G. c #F1EC28",
"H. c #E5E438",
"J. c #838B44",
"K. c #8A954B",
"L. c #959B43",
"P. c #8A9759",
"I. c #969958",
"U. c #9CAC42",
"Y. c #94A946",
"T. c #9BB64A",
"R. c #91A953",
"E. c #A7A946",
"W. c #AAB645",
"Q. c #A4BB4C",
"!. c #AEBD4C",
"~. c #A6B648",
"^. c #B3B845",
"/. c #ACAC58",
"(. c #ACBA59",
"). c #9A856C",
"_. c #A38878",
"`. c #A7957F",
"'. c #99A96E",
"]. c #95AD7A",
"[. c #AFAF74",
"{. c #ABC04E",
"}. c #ACC553",
"|. c #A8C455",
" X c #B2C452",
".X c #B3CC5A",
"XX c #B5CA57",
"oX c #B6D25D",
"OX c #BBD45E",
"+X c #B1C14F",
"@X c #BCD661",
"#X c #BDD861",
"$X c #B7D361",
"%X c #577387",
"&X c #737F8D",
"*X c #987D83",
"=X c #778697",
"-X c #708787",
";X c #8B9292",
":X c #95AF8D",
">X c #B2AF8D",
",X c #919CA3",
"<X c #8BA8A8",
"1X c #95BBB9",
"2X c #99AEB1",
"3X c #A2AAAA",
"4X c #B3BAB9",
"5X c #ACB4AF",
"6X c #A89B86",
"7X c #C4B6AC",
"8X c #AFC9B2",
"9X c #C7C794",
"0X c #C2C28D",
"qX c #C5C4BB",
"wX c #CED2AF",
"eX c #99C3C2",
"rX c #B6D5D3",
"tX c #B7E3E4",
"yX c #B0E0DB",
"uX c #C9D3C3",
"iX c #D1D4CA",
"pX c #DEE1C8",
"aX c #DBE1DE",
"sX c #E7E9DD",
"dX c #E7E8C5",
"fX c #CBE6E4",
"gX c #D8EAE8",
"hX c #DFF3F0",
"jX c #E6EAE4",
"kX c #EDF2EC",
"lX c #E8F2E8",
"zX c #F3F7F1",
"xX c #F5F9F2",
"cX c #EDF5EF",
"vX c None",
/* pixels */
"vXvXvXvXvXvXvXvXvXvXvXvXvXvXvXvXvXvXvXvXvXvXvXvXvXvXvXvXvXvX4.vXvXvXvXvXvXvXvXvXvXvXvX2.vXvXvXvX*.+.vXvXvXvXvXvXvXvXvXvXvXvXvXvX",
"vXvXvXvXvXvXvXvXvXvXvXvXvXvXvXvXvXvXvXq.x.d.<.q.h.k.s.vX;.d.k.M.j.vXvX2.z.l.k.g.,.1.k.M.M.h.q.h.M.] vXvXvXvXvXvXvXvXvXvXvXvXvXvX",
"vXvXvXvXvXvXvXvXvXvXvXvXvXvXvXvXvXvXvXN.F.F.C.C.Z.Z.Z.V.V.D.F.Z.Z.M.l.V.Z.F.F.Z.C.C.F.F.F.F.F.F.u.=.E.vXvXvXvXvXvXvXvXvXvXvXvXvX",
"vXvXvXvXvXvXvXvXvXvXvXvXvXvXvXvXvXvXvXN.F.F.F.Z.Z.C.F.Z.F.F.F.F.G.G.G.F.Z.Z.F.F.F.F.F.F.F.F.F.p.{ !.{.vXvXvXvXvXvXvXvXvXvXvXvXvX",
"vXvXvXvXvXvXvXvXvXvXvXvXvXvXvXvXvXvXvXx.F.F.Z.C.r.w.A.F.F.F.F.F.F.F.F.F.F.F.k.a.N.F.F.F.F.F.F.t.&.OXOX{.Y.vXvXvXvXvXvXvXvXvXvXvX",
"vXvXvXvXvXvXvXvXvXvXvXvXvXvXvXvXvXvXvXx.F.F.F.i.-.6.A.F.F.F.F.F.F.F.F.F.F.C.3.-.x.F.F.F.F.F.F.| +X#X#XOX X%.vXvXvXvXvXvXvXvXvXvX",
"vXvXvXvXvXvXvXvXvXvXvXvXvXvXvXvXvXvXvXx.F.F.F.i.3.d.D.F.F.F.F.F.F.F.F.F.F.C.<.1.N.F.F.F.F.F.F... X#XOX#XOXU.vXvXvXvXvXvXvXvXvXvX",
"vXvXvXvXvXvXvXvXvXvXvXvXvXvXvXvXvXvX6.Z.F.F.F.Z.C.D.Z.F.F.F.F.F.G.F.F.F.F.F.M.A.Z.F.F.F.F.F.G... XOX#X#X#XQ.vXvXvXvXvXvXvXvXvXvX",
"vXvXvXvXvXvXvXvXvXvXvXvXvXvXvXvXvXvXz.G.G.F.F.F.Z.Z.l.k.V.F.F.F.F.F.F.F.Z.Z.F.F.F.F.F.F.F.F.M.} XXOX}.|.@X}.vXvXvXvXvXvXvXvXvXvX",
"vXvXvXvXvXvXvXvXvXvXvXvXvXvXvXvXvX8.A.G.F.F.F.F.Z.l.1.;.w.D.F.F.G.F.Z.l.V.Z.F.G.G.G.F.F.F.Z.r.5.OX|.^ ^ |.OXQ.vXvXvXvXvXvXvXvXvX",
"vXvXvXvXvXvXvXvXvXvXvXvXvXvXvXvXvX9.D.F.F.G.F.F.Z.<.4.4.6.c.F.F.F.Z.j.1.3.c.F.F.Z.l.D.F.F.k.:.XX#X%.k l @.$XOXQ.vXvXvXvXvXvXvXvX",
"vXvXvXvXvXvXvXvXvXvXvXvXvXvXvXvXvX8.A.Z.Z.M.C.F.p.>.5.4.6.A.F.F.F.V.,.4.&.b.F.F.h.;.z.F.Z.X.!.#XOX%.k l ~ $XOX}.vXvXvXvXvXvXvXvX",
"vXvXvXvXvXvXvXvXvXvXvXvXvXvXvXvXvXvXA.Z.s.>.d.Z.p.;.&.5.9.A.F.F.F.i.;.5.5.2.Z.F.g.-.f.G.p.=.OX#XOX%.l l ~ oXoX~.vXvXvXvXvXvXvXvX",
"vXvXvXvXvXvXvXvXvXvXvXvXvXvXvXvXvXvXc.D.<.4.w.D.V. .-.;.f.F.F.F.F.l.;.&.4.b.G.F.V.s.S.F.u.5.#X#X#XQ.W W T.#X|.vXvXvXvXvXvXvXvXvX",
"vXvXvXvXvXvXvXvXvXvXvXvXvXvXvXvXvXvXV.Z.t.w.N.F.F.l.f.z.S.F.F.F.F.C.3.=.>.c.G.F.F.F.F.F.u.5.#X#X#X$XT.T.$XOXU.vXvXvXvXvXvXvXvXvX",
"vXvXvXvXvXvXvXvXvXvXvXvX=X2X<X=XvXw.D.Z.Z.D.F.F.F.G.Z.Z.F.F.F.F.F.F.l.g.c.D.G.F.F.F.F.F.u.5.#X#X#X#X#X#XOXOX&.vXvXvXvXvXvXvXvXvX",
"vXvXvXvX) =.*.+.o.z vXb rXgXtXrX5Xm.G.F.F.F.F.F.F.F.F.F.F.G.F.F.F.F.F.Z.F.F.F.F.F.F.F.F. .W.oX|.oX#X#X#XOX{.@.vXvXvXvXvXvXvXvXvX",
"vXvXvXvX^.A.a.s.h.s...K.jXfXtXtX8Xn.F.F.F.F.F.F.F.F.F.F.F.F.F.F.G.F.F.F.F.F.F.F.F.F.F.u.:.OX%.W Y.#XOX#X}.&.vXvXvXvXvXvXvXvXvXvX",
"vXvXvXvXe.} vXvXx ! o.'.cXhXhXhXwXH.F.F.F.F.F.F.F.G.F.F.F.F.F.F.F.F.F.F.F.F.F.F.F.F.C.{ +XOX~ l ~ $X#XoX@.vXvXvXvXvXvXvXvXvXvXvX",
"vXvXvXvXb.' vXvXvXvXvX,XcXzXxXxXdXG.F.F.F.F.F.F.F.F.F.F.Z.M.S.F.F.F.F.F.F.F.F.F.F.F.u.-.#X#XT.W T.oXT.K.n =X;X&XvXvXvXvXvXvXvXvX",
"vXvXvXvXb.p vXvXvXvXvX=XgXxXxXxXdXH.F.G.F.F.F.F.F.F.G.C.a.;.d.S.F.F.F.F.F.F.F.F.F.F.t.8.#X#X$X.X|.) :XeXrXrXfXiX5XvXvXvXvXvXvXvX",
"vXvXvXvXd.vXvXvXvXvXvXvX;X3X3X,X>XA.F.G.F.F.F.F.F.F.F.s.-.4.6.N.F.G.F.F.F.F.F.F.F.F.r.W.#X#X#X$X'.rXfXfXfXtXfX3X4X;XvXvXvXvXvXvX",
"vXvXvXK.g.vXvXvXvXvXvXvXvXvXvXvXe.V.G.F.F.F.F.F.F.F.Z.3.4.4.5.n.F.F.F.F.F.F.F.F.F.F.r.W.#X#X#XoX'.cXhXhXhXhX8X! L.$.x vXvXvXvXvX",
"vXvXvXL.a.vXvXvXvXvXvXvXvXvXvXvXf.Z.F.F.F.F.F.F.F.F.C.,.4.5.6.c.F.F.F.F.F.F.F.F.F.C.| {.oXT.|.#XT.uXxXxXxXcX>X2.j.j.j.s.<.} O.vX",
"vXvXJ.f.j./ vXvXvXvXvXvXvXvXvXvXv.G.G.F.F.F.F.F.F.F.C.,.4.4.9.D.F.F.F.F.F.F.F.F.F.u.=..X@.W ^ |..XI.uXzXxXkX;X`.I.x o.=.2.x.V.:.",
"vXvX&.j.y.t.[ vXvXvXvXvXvXvXvXvXv.G.F.F.F.F.F.F.F.F.F.g.;.1.v.Z.F.F.F.F.F.G.F.F.C.{ {.|.W l k Y.#XU.n 5XjXxXqXaX3XvXvXvXvX$.v.{ ",
"vXo._ _ } | j.p vXvXvXvXvXvXvXvXz.F.F.F.F.F.F.F.F.F.F.S.k.c.Z.Z.F.F.F.F.F.F.F.F.y.5.OXQ.l l k @.#XT.vXvX=X4XuX5XvXvXvXvXvXvXf.' ",
"E.:.d.' f.k.| vXvXvXvXvXvXvXvXvXf.F.F.F.F.F.F.F.F.F.F.F.G.F.Z.Z.G.F.F.F.F.F.F.F.r.W.#X|.W l k Y.@XY.vXvXvXvXvXvXvXvXvXvXvXL.d.vX",
"E.:.d.} ` ` a vXvXvXvXvXvXvXvXvXn.F.F.F.F.F.F.F.F.F.F.F.F.F.F.j.f.D.F.F.F.G.F.F. .W.#XOX~ l W |.@XU.vXvXvXvXvXvXvXvXvXvXvX^.| vX",
"J.o.>.1.h.a./ vXvXvXvXvXvXvXvXE.A.F.F.F.F.F.F.F.Z.k.j.F.F.F.M.*.-.c.F.F.F.G.F.F.0.W.#XOX|.Y.T.#X.XY.vXvXvXvXvXvXvXvXvXvXvXb.[ vX",
"vXvXn x 6.[ vXvXvXvXvXvXvXvXvX8.D.F.F.F.F.F.F.F.M.*.9.S.F.F.i.*.;.c.F.F.F.F.F.F.| !.#X#XOX#X@XOX{.vXvXvXvXvXvXvXvXvXvXc @.f.vXvX",
"vXvXvXvXvXvXvXvXvXvXvXvXvXvXvX7.A.F.F.F.F.F.F.F.p.*.2.S.F.F.C.r.b.S.F.F.F.F.F.C.:..X#X#XOX#X@XoX&.vXvXvXvXvXvXvXvXJ.b.s.s.t.vXvX",
"vXvXvXvXvXvXvXvXvXvXvXvXvXvXvXL.x.F.F.F.F.F.F.F.C.k.N.F.F.F.F.C.Z.G.G.F.F.F.F.r.8.OX|.|.OXOX#X X@.vXvXvXvXvXvXvXvXW.u.X.} p.0.vX",
"vXvXvXvXvXvXvXvXvXvXvXvXvXvXvXL.N.F.F.F.F.F.F.F.F.Z.F.F.F.F.F.F.F.F.F.F.F.F.F.X.{..X^ ^ oX#X#X}.vXvXvXvXvXvXvXvXvX#.j.u.N ' w.` ",
"vXvXvXvXvXvXvXvXvXvXvXvXvXvXvX7.A.F.F.F.F.F.F.F.F.F.F.F.F.F.F.F.F.F.F.F.F.F.F.| {.{.k ^ .X#X#X}.vXvXvXvXvXvXvXvXvXc ` _ / w.3.[ ",
"vXvXvXvXvXvXvXvXvXvXvXvXvXvXvX8.S.F.F.F.F.F.F.F.F.F.F.F.F.F.F.F.F.F.F.F.F.F.F.0.~.|.W ~ OX#X#XQ.vXvXvXvXvXvXvXvXvX~.*.*.-.l.| O.",
"vXvXvXvXvXvXvXvXvXvXvXvXvXvXvXE.x.y.0.q.A.F.F.C.M.C.F.F.F.F.F.F.F.F.F.F.F.F.F.0.~.oXQ.|.$X#XoX&.vXvXvXvXvXvXvXvXvXvX@.6.+.f.*.vX",
"vXvXvXvXvXvXvXvXvXvXvXvXvXvXvXvXE./.9X9X/.q.q.4.E.^.h.i.y. .q.k.C.p.y.t.j.Z.C.{ !.OX#X#X#X#XXX@.vXvXvXvXvXvXvXvXvXvXvXvXvXvXvXvX",
"vXvXvXvXvXvXvXvXvXvXvXvXvXvXvXvXwXkXzXzXkXwX9XpXsXpX0XE./.0X9X(.6.4./.[./.1. .O.Y.T.}.~.U.XX|.@.vXvXvXvXvXvXvXvXvXvXvXvXvXvXvXvX",
"vXvXvXvXvXvXvXvXvXvXvXvXvXvXvXvX,X7X7XiXiXsXjXjXkXkXkXjXkXxXxXlXpXpXkXzXjXwXI.'.8X:XR.'.:XR.@.vXvXvXvXvXvXvXvXvXvXvXvXvXvXvXvXvX",
"vXvXvXvXvXvXvXvXvXvXvXvXvXvXvXvXh A A T T T R R ).)._.6X>X5X7XqXiXiXsXjXkXzX3X5XtXtXyXyXtXrX( vXvXvXvXvXvXvXvXvXvXvXvXvXvXvXvXvX",
"vXvXvXvXvXvXvXvXvXvXvXvXvXvXvXvXh 6 9 d f g N D Z V S S Z V D F F T R E _.6Xn -X<X<X<X1X1XeX-XvXvXvXvXvXvXvXvXvXvXvXvXvXvXvXvXvX",
"vXvXvXvXvXvXvXvXvXvXvXvXvXvXvXvXs o       o ; B = % - 3 9 f G B B N V D D K e 5 7 7 s s s s > vXvXvXvXvXvXvXvXvXvXvXvXvXvXvXvXvX",
"vXvXvXvXvXvXvXvXvXvXvXvXvXvXvXvXj 9 < = # O ; g O         - N $ o O + # 9 G f 4 * * * * , 4 4 vXvXvXvXvXvXvXvXvXvXvXvXvXvXvXvXvX",
"vXvXvXvXvXvXvXvXvXvXvXvXvXvXvXvXA J H G D V V K f d 8 9 - d S % O O o   = G i < o         + 3 vXvXvXvXvXvXvXvXvXvXvXvXvXvXvXvXvX",
"vXvXvXvXvXvXvXvXvXvXvXvXvXvXvXvXC P J P P P P P U I P J G G H D N B g i g G e 4 $ $ $ + O # vXvXvXvXvXvXvXvXvXvXvXvXvXvXvXvXvXvX",
"vXvXvXvXvXvXvXvXvXvXvXvXvXvXvXvXh H G J H P P P J J P P I L I U P L L L P H q r w w w w w y vXvXvXvXvXvXvXvXvXvXvXvXvXvXvXvXvXvX",
"vXvXvXvXvXvXvXvXvXvXvXvXvXvXvXvXvXj h h B f B N V D G G H H I U L L L L L H e q i t t t t r vXvXvXvXvXvXvXvXvXvXvXvXvXvXvXvXvXvX",
"vXvXvXvXvXvXvXvXvXvXvXvXvXvXvXvXvXvXvXvXvX5 2 2 2 2 6 6 d h h h h C B N Z Z 9 2 6 r r r w 6 vXvXvXvXvXvXvXvXvXvXvXvXvXvXvXvXvXvX",
"vXvXvXvXvXvXvXvXvXvXvXvXvXvXvXvXvXvXvXvXvXvXq t t w w < vXvXvXvXvXvX; < 1 4 * , , , * vXvXvXvXvXvXvXvXvXvXvXvXvXvXvXvXvXvXvXvXvX",
"vXvXvXvXvXvXvXvXvXvXvXvXvXvXvXvXvXvXvXvXvXvX8 t t w 6 a vXvXvXvXvXvXvX7 w w w w t 6 vXvXvXvXvXvXvXvXvXvXvXvXvXvXvXvXvXvXvXvXvXvX",
"vXvXvXvXvXvXvXvXvXvXvXvXvXvXvXvXvXvXvXvXvXvXvX8 q 6 s 9.w.vXvXvXvXvXvXvXr t t t w 0 vXvXvXvXvXvXvXvXvXvXvXvXvXvXvXvXvXvXvXvXvXvX",
"vXvXvXvXvXvXvXvXvXvXvXvXvXvXvXvXvXvXvXvXvXvXvXvXvXvXvXvXz.| vXvXvXvXvXvXu q w r i ` vXvXvXvXvXvXvXvXvXvXvXvXvXvXvXvXvXvXvXvXvXvX",
"vXvXvXvXvXvXvXvXvXvXvXvXvXvXvXvXvXvXvXvXvXvXvXvXvXvXvXvXU.3.vXvXvXvXvXvXvXu 8 vXQ v.<.vXvXvXvXvXvXvXvXvXvXvXvXvXvXvXvXvXvXvXvXvX",
"vXvXvXvXvXvXvXvXvXvXvXvXvXvXvXvXvXvXvXvXvXvXvXvXvXvXvX%Xm vXvXvXvXvXvXvXvXvXvXvXvX&.z.vXvXvXvXvXvXvXvXvXvXvXvXvXvXvXvXvXvXvXvXvX",
"vXvXvXvXvXvXvXvXvXvXvXvXvXvXvXvXvXvXvXvXvXvXvXvXvXvXM 6X%XvXvXvXvXvXvXvXvXvXvXvXvXn &.vXvXvXvXvXvXvXvXvXvXvXvXvXvXvXvXvXvXvXvXvX",
"vXvXvXvXvXvXvXvXvXvXvXvXvXvXvXvXvXvXvXvXvXvXvXvXvXvX7XE vXvXvXvXvXvXvXvXvXvXvXvXvX%X%XvXvXvXvXvXvXvXvXvXvXvXvXvXvXvXvXvXvXvXvXvX",
"vXvXvXvXvXvXvXvXvXvXvXvXvXvXvXvXvXvXvXvXvXvXvXvX& 4X4XvXvX> : vXvXvXvXvXvXvXvXvXY *XvXvXvXvXvXvXvXvXvXvXvXvXvXvXvXvXvXvXvXvXvXvX",
"vXvXvXvXvXvXvXvXvXvXvXvXvXvXvXvXvXvXvXvXvXvXvX  . : & vX. b b X vXvXvXvXvXvXvXm >XY vXvX& : vXvXvXvXvXvXvXvXvXvXvXvXvXvXvXvXvXvX",
"vXvXvXvXvXvXvXvXvXvXvXvXvXvXvXvXvXvXvXvXvXvXvX.           X . . vXvXvXvXvXvX  b ;X> vX  b ;X@ vXvXvXvXvXvXvXvXvXvXvXvXvXvXvXvXvX",
"vXvXvXvXvXvXvXvXvXvXvXvXvXvXvXvXvXvXvXvXvXvXvX.               vXvXvXvXvXvXvX    X   X   @ @ X vXvXvXvXvXvXvXvXvXvXvXvXvXvXvXvXvX",
"vXvXvXvXvXvXvXvXvXvXvXvXvXvXvXvXvXvXvXvXvXvXvXvX  . vXX   . vXvXvXvXvXvXvXvX                vXvXvXvXvXvXvXvXvXvXvXvXvXvXvXvXvXvX",
"vXvXvXvXvXvXvXvXvXvXvXvXvXvXvXvXvXvXvXvXvXvXvXvXvXvXvXvXvXvXvXvXvXvXvXvXvXvXX     X X     X vXvXvXvXvXvXvXvXvXvXvXvXvXvXvXvXvXvX",
"vXvXvXvXvXvXvXvXvXvXvXvXvXvXvXvXvXvXvXvXvXvXvXvXvXvXvXvXvXvXvXvXvXvXvXvXvXvXvX. X vXvXvXvXvXvXvXvXvXvXvXvXvXvXvXvXvXvXvXvXvXvXvX"
};
