/* XPM */
static char *result[] = {
/* columns rows colors chars-per-pixel */
"64 64 233 2 ",
"   c #020202",
".  c #0A0C0B",
"X  c #110B07",
"o  c #171917",
"O  c #13160E",
"+  c #291109",
"@  c #38170D",
"#  c #250F09",
"$  c #362E11",
"%  c #032633",
"&  c #292C2A",
"*  c #29322D",
"=  c #363836",
"-  c #30302D",
";  c #021922",
":  c #711A18",
">  c #4D2112",
",  c #582615",
"<  c #463C0D",
"1  c #682916",
"2  c #792D16",
"3  c #76331B",
"4  c #6F311C",
"5  c #443A3A",
"6  c #793A25",
"7  c #431D10",
"8  c #38443D",
"9  c #5A4D11",
"0  c #645617",
"q  c #74671C",
"w  c #76681C",
"e  c #7B6C1C",
"r  c #73472B",
"t  c #736620",
"y  c #04384C",
"u  c #453F41",
"i  c #3C4941",
"p  c #414E46",
"a  c #46554D",
"s  c #4C5C53",
"d  c #5A5251",
"f  c #645B5D",
"g  c #506157",
"h  c #516258",
"j  c #4F6056",
"k  c #7D7675",
"l  c #786C69",
"z  c #747442",
"x  c #832E16",
"c  c #8B2D19",
"v  c #8E3218",
"b  c #87361B",
"n  c #94391D",
"m  c #A91A22",
"M  c #BA1826",
"N  c #8A3B21",
"B  c #853D24",
"V  c #983C22",
"C  c #953332",
"Z  c #B12B25",
"A  c #98161E",
"S  c #CC1628",
"D  c #C61526",
"F  c #85741C",
"G  c #8D7A1E",
"H  c #867818",
"J  c #93791E",
"K  c #8C671A",
"L  c #884226",
"P  c #9D4324",
"I  c #964527",
"U  c #954D34",
"Y  c #8B4934",
"T  c #A44626",
"R  c #A74827",
"E  c #A84827",
"W  c #AA4A29",
"Q  c #A54828",
"!  c #B65432",
"~  c #8E7527",
"^  c #95471C",
"/  c #A83642",
"(  c #8D5746",
")  c #905F51",
"_  c #905A4A",
"`  c #8B7A57",
"'  c #8B645A",
"]  c #925F63",
"[  c #867A7A",
"{  c #987672",
"}  c #967167",
"|  c #A46C70",
" . c #898519",
".. c #99841E",
"X. c #A58C1E",
"o. c #AB921E",
"O. c #948121",
"+. c #978A23",
"@. c #999629",
"#. c #9D9935",
"$. c #948830",
"%. c #A48D22",
"&. c #A48D2A",
"*. c #AC9422",
"=. c #AA962B",
"-. c #B39A23",
";. c #B99E24",
":. c #B49C29",
">. c #AB9433",
",. c #A89539",
"<. c #B09933",
"1. c #A48F3B",
"2. c #BCA325",
"3. c #BBA22B",
"4. c #B5A125",
"5. c #A9A73A",
"6. c #B8A638",
"7. c #C99725",
"8. c #C88F25",
"9. c #C1A626",
"0. c #C5AA26",
"q. c #CAAD26",
"w. c #CCAF29",
"e. c #C7A729",
"r. c #CEB027",
"t. c #CEB128",
"y. c #D1B42A",
"u. c #D0B227",
"i. c #CAB537",
"p. c #D4BA34",
"a. c #D5BE3B",
"s. c #D1B630",
"d. c #CCAD32",
"f. c #D8C13E",
"g. c #9B8C4C",
"h. c #988A58",
"j. c #9D974E",
"k. c #A38F47",
"l. c #A79747",
"z. c #A28F53",
"x. c #A89758",
"c. c #B19F54",
"v. c #AEAC45",
"b. c #B4AD46",
"n. c #B9B74A",
"m. c #ACA857",
"M. c #B9B455",
"N. c #988965",
"B. c #978A79",
"V. c #8D8679",
"C. c #A69867",
"Z. c #A69778",
"A. c #A08F6F",
"S. c #B9B765",
"D. c #B2AC73",
"F. c #C6BA49",
"G. c #CABC4C",
"H. c #C1BF67",
"J. c #DAC543",
"K. c #DDCB4D",
"L. c #DAC749",
"P. c #CAC65B",
"I. c #C9C759",
"U. c #DDCE53",
"Y. c #D5CA5B",
"T. c #D0C956",
"R. c #E0CE4F",
"E. c #E1CF52",
"W. c #E2D254",
"Q. c #E4D55A",
"!. c #E7D95E",
"~. c #C8C564",
"^. c #D2CD63",
"/. c #D1CC6A",
"(. c #D3D264",
"). c #DAD564",
"_. c #DCDA6B",
"`. c #DAD768",
"'. c #DCD972",
"]. c #E3DE6D",
"[. c #E8DC64",
"{. c #E2DE72",
"}. c #E9E26D",
"|. c #ECE573",
" X c #E9E676",
".X c #F1EC7B",
"XX c #F0EA76",
"oX c #F5F07E",
"OX c #056C93",
"+X c #0A739C",
"@X c #06739C",
"#X c #0F6B8E",
"$X c #347792",
"%X c #2E708B",
"&X c #52798B",
"*X c #687C87",
"=X c #678290",
"-X c #71838E",
";X c #8C8182",
":X c #998988",
">X c #868D94",
",X c #9B9494",
"<X c #968D96",
"1X c #A59585",
"2X c #A4968C",
"3X c #AA9B88",
"4X c #A49494",
"5X c #AB9C9C",
"6X c #A79A97",
"7X c #B19190",
"8X c #B0A38E",
"9X c #A6A39E",
"0X c #B2A397",
"qX c #B7AE8F",
"wX c #9A99A5",
"eX c #AC9FA1",
"rX c #B19EA1",
"tX c #B3A4A4",
"yX c #B6A6A9",
"uX c #BBABAD",
"iX c #B7A8A7",
"pX c #BBB6B1",
"aX c #B0ACA7",
"sX c #C4B9B7",
"dX c #C6BEAC",
"fX c #F5F283",
"gX c #F0EF82",
"hX c #C7C2BB",
"jX c #D4CCC8",
"kX c #DCDAD4",
"lX c #CFCAC5",
"zX c #E1DED7",
"xX c None",
/* pixels */
"xXxXxXxXxXxXxXxXxXxXxXxX+.@.@.xXxXxXxXxXxXxXxXxXxXxXxXxXxXxXxXxXxXxXxXxXxXxXxXxXxXxXxXxXxXxXxXxXxXxXxXxXxXxXxXxXxXxXxXxXxXxXxXxX",
"xXxXxXxXxXxXxXxXxXxXxX@.(.}.`.I.xXxXxX . .#.xXxXxXxXxXxXxXxXxXxXxXxXxXxXxXxXxXxXxXxXxXxXxXxXxXxXxXxXxXxXxXxXxXxXxXxXxXxXxXxXxXxX",
"xXxXxXxXxXxXxXxXxXxXxXP.K.s.J..X XI.n.I.).|. XI.+. . .+.@.xXxXxXxXxXxXxXxXxXxXxXxXxXxXxXxXxXxXxXxXxXxXxXxXxXxXxXxXxXxXxXxXxXxXxX",
"xXxXxXxXxXxXxXxXxXxXxX`.J.r.r.a.!.Q.f.a.a.f.!..X{.(.`. X.X_.n.xXxXxX . .+.xXxXxXxXxXxXxXxXxXxXxXxXxXxXxXxXxXxXxXxXxXxXxXxXxXxXxX",
"xXxXxXxXxXxXxXxXxXxXxX(.Q.r.%.F G 4.r.r.r.r.r.J.XX.XU.f.R.oXgX^.n.n.I.(.(.I.xXxXxXxXxXxXxXxXxXxXxXxXxXxXxXxXxXxXxXxXxXxXxXxXxXxX",
"xXxXxXxXxXxXxXxXxXxXxXn.|.4.e q q O.r.r.r.r.r.r.y.s.t.t.t.f.}.oX.XW.f.a.J.Q.).n.5.5.G.(.`.n.xXxXxXxXxXxXxXxXxXxXxXxXxXxXxXxXxXxX",
"xXxXxXxXxXxXxXxXxXxXxXn.|.=.q w q F q.r.t.t.u.r.t.t.t.t.t.t.t.p.y.u.r.r.t.t.L.[.].[.E.J.W.}.I.5.b.n.@.xXxXxXxXxXxXxXxXxXxXxXxXxX",
"xXxXxXxXxXxXxXxXxXxXxX_.W.:.e q q O.r.y.y.t.r.r.t.t.t.t.t.t.r.r.r.r.t.t.t.t.r.t.y.r.r.r.r.p.}..X|.fXY. .xXxXxXxXxXxXxXxXxXxXxXxX",
"xXxXxXxXxXxXxXxXxXxXI.}.y.r.%.F G 9.;.G 9.u.r.r.r.r.u.w.u.u.u.r.t.t.t.t.r.r.r.r.t.t.r.t.r.r.y.p.y.}.{. .xXxXxXxXxXxXxXxXxXxXxXxX",
"xXxXxXxXxXxXxXxXxXxXI.Q.r.r.r.0.q.u.0   $ ..q.u.u.r.r.u.w.w.u.r.t.t.t.t.u.w.r.r.t.t.t.t.r.9.=.9.f.oXn.xXxXxXxXxXxXxXxXxXxXxXxXxX",
"xXxXxXxXxXxXxXxXxXxXn.[.t.w.0.r.w.u.-.9 X X < ..q.y.u.u.u.w.r.r.r.r.t.t.r.u.u.y.r.w.t.t.u.%.q *.!.`.+.xXxXxXxXxXxXxXxXxXxXxXxXxX",
"xXxXxXxXxXxXxXxXxXxX5.}.s.%.G 0.u.u.u.1.[ f & X $ F ;.u.u.0.2.0.t.y.u.y.u.0.-.H 9 < -.y.r.2.+.d.|.5.xXxXxXxXxXxXxXxXxXxXxXxXxXxX",
"xXxXxXxXxXxXxXxXxXxX .).s.=.G w.u.t.1.2XsXuXtX;Xd - $ 0 J -.X.2.y.0.o.H 9 @ X X O 9 -.u.u.t.u.p.}.@.xXxXxXxXxXxXxXxXxXxXxXxXxXxX",
"xXxXxXxXxXxXxXxXxXxX#.).t.t.w.r.u.:.1XuXyXuXuXuXtXrX<Xl d 0 F 0 0 $ & - u d k :X` ;.u.t.u.w.w.a.}.xXxXxXxXxXxXxXxXxXxXxXxXxXxXxX",
"xXxXxXxXxXxXxXxXxXxXI.L.r.r.r.r.w.z.yXuXuXuXeX&X%X&X<XsXtXz.-.l [ :X6XiXuXuXpXsXiXg.q.t.u.r.r.s.}.xXxXxXxXxXxXxXxXxXxXxXxXxXxXxX",
"xXxXxXxXxXxXxXxXxXxX Xf.r.r.r.r.e.A.uXuXuXuX*X@X@X@X%X5XsXA.g.tXuX<X&X*X6XuXuXuXuX6X<.w.w.u.r.p.].xXxXxXxXxXxXxXxXxXxXxXxXxXxXxX",
"xXxXxXxXxXxXxXxXxX5. Xp.r.r.t.t.7.2XuXuXuXtX$XOX; y OX>XuX4X:XsX>X#X@X@X%X5XuXiXuXyXz.t.r.r.r.W._.xXxXxXxXxXxXxXxXxXxXxXxXxXxXxX",
"xXxXxXxXxXxXxXxXxX@. XJ.r.r.t.t.3.3XuXuXuXtX$XOX; y +X>XsX4X5XuX&X@X% y #X-XsXuXuXuXA.0.r.r.s..Xn.xXxXxXxXxXxXxXxXxXxXxXxXxXxXxX",
"xXxXxXxXxXxXxXxXxXxX(.W.r.t.e.t.2.Z.uXuXuXuX=X+X@X@X%XrXuX,X5XiX$XOX. % +X-XuXuXuXuXZ.0.r.r.f._.+.xXxXxXxXxXxXxXxXxXxXxXxXxXxXxX",
"xXxXxXxXxXxXxXxXxXxX(.W.w.7.7.q.r.h.iXuXuXuXtX-X&X*XeXuX4X' B.uX=X+X#X#X+X<XuXuXuXuXZ.0.t.r.f.Y.xXxXxXxXxXxXxXxXxXxXxXxXxXxXxXxX",
"xXxXxXxXxXxXxXxXxXxX).p.t.7.e.8.u.<.2XuXuXuXuXuXyXuXsX1X<.9.>.2XtX&X%X$X>XuXuXuXuXuXC.r.r.r.f.I.xXxXxXxXxXxXxXxXxXxXxXxXxXxXxXxX",
"xXxXxXxXxXxXxXxXxXP.W.r.t.t.t.w.u.w.k.rXuXuXuXuXuXuXyXz.q.t.0.x.uXiXeXtXuXuXuXuXuXeX,.r.r.r.L.(.xXxXpXhXhXxXxXxXxXxXxXxXxXxXxXxX",
"xXxXxXxXxXxXxXxXxX{.J.w.t.t.t.t.w.u.q.k.3XyXuXuXuXuX2X1.u.u.r.z.yXuXuXuXuXuXuXuXiXN.q.t.r.r.W.^.aXkXjXsXhXV.m.~.T.d.;.xXxXxXxXxX",
"xXxXxXxXxXxXxXxXxX].J.t.t.t.t.t.r.u.t.t.:.z.A.A.A.h.>.*.w.w.q.$.B.yXuXuXuXuXuX0XA.3.e.7.7.r.}.H.hXhXdXtXsXZ.T.a.3.;.w.*.xXxXxXxX",
"xXxXxXxXxXxXxXxXj.(.R.9.-.w.r.r.q.9.2.2.q.r.0.7.9.q.u.0.w.r.;.2.:.h.2X5XtXrXZ.k.e.t.0.w.7.G.}.j.iXuXuXuXpXN.X.xXxXxX-.9.xXxXxXxX",
"xXxXxXxXxXxXpXzXdXn.W...e 4.r.9.*.X.+.~ h.` -.e.u.u.r.r.r.w.4.w.w.e.:.>.,.<.9.r.t.t.r.r.d.|.b.g.uXuXuXuXuXk xXxXxXxX+.q.xXxXxXxX",
"xXxXxXxXeXjXzXlX8Xn.W.*.+.e.r.r.w.t.<.2XsXrXB.O.o.r.r.r.t.w.t.t.r.r.u.u.u.r.t.t.r.t.t.r.R. X1.8XuXuXuXuX5XxXxXxXxXxXxXw.-.xXxXxX",
"xXxXxXhXzXjXsXuX3XI.R.r.t.t.t.t.y.9.N.uXyXsXx.;.h.1.r.r.t.t.t.t.r.r.r.r.t.t.t.t.t.t.t.r.!.[.x.yXiXtXeX,Xl xXxXxXxXxXxX0.9.xXxXxX",
"xXxX9XkXpXtXuXuXC._.f.r.r.r.r.r.w.w.1.,XuX1X:.z.tX4Xk.u.u.r.t.t.t.t.t.t.t.t.t.y.t.t.t.t.R._.N.:X[ xXxXxXxXxXxXxXxXxXxX9.0.xXxXxX",
"xXxX9XhX1Xh.0XtXm.}.y.r.r.r.q.0.w.r.q.>.N.l.<.5XuXuX` -.u.r.t.t.t.t.t.t.t.t.q.:.2.t.t.t.f._.xXxXxXxXxXxXxXxXxXxXxXxXxX;.q.xXxXxX",
"xXxXxXhXc.9.Z.0Xv.}.r.r.q.6.G.F.<.-.w.r.0.0.1.5XuXtXg.o.r.r.t.t.t.t.t.t.w.0.G e e *.t.r.f.}.xXxXxXxXxXxXxXxXxXxXxXxXxX=.w.xXxXxX",
"xXxXxXD.a.:.3X0Xv.Q.r.0.b.].U.p.r.2.-.r.u.u.w.,.3XZ.9.4.w.r.t.r.t.t.r.r.u.*.q e w F q.r.L._.xXxXxXxXxXxXxXxXxXxXxXxX%.-.r.-.xXxX",
"xXxXxXU.e.Z.uX:X,.R.w.6.{.J.q.q.2.0.;.9.r.y.r.r.6.<.t.t.t.t.t.t.r.t.r.t.y.+.w w w e e.r.!.I.xXxXxXxXxXxXxXxXxXxXxX:.t.t.t.t.2.xX",
"xXxX/.p.&.[ ;XxXv.E.9.P.R.r.0.-.0.;.;.2.y.r.r.r.w.r.r.t.t.t.r.t.t.t.w.t.r.-.w w q G q.f.].@.xXxXxXxXxXxXxXxXxXxXxX0.t.r.t.t.r.:.",
"xXS.K.9.xXxXxXxXv.P.6.F.y.9.q.4.9.X.e ;.r.r.r.r.r.r.t.t.t.t.t.t.t.t.t.t.r.w.%.F G 4.p.|.n.H xXxXxXxXxXxXxXxXxXxXxXe.0.2.2.;.-.%.",
"xXP.p.%.xXxXxXH.~.).U.r.w.*.2...F e q =.y.t.r.u.r.r.t.t.t.t.t.t.t.t.t.t.t.r.w.e.q.r.L.fX5.xXxXxXxXxXxXxXxXxXxXxXxX2.-.-.-.;.4.%.",
"h.L.i.m.'.^.U.L.s.3.*.%.o.*.*.J q e ..0.q.u.r.r.r.r.r.t.r.r.r.t.t.t.t.t.r.t.t.t.r.r.J.gXn.xXxXxXxXxXxXxXxXxXxXxXxX*.*.=.0.-.xXxX",
"l.f.K.L.a.t.9.*.$.$.&.#.k.6.0.0.-.-.2.9.q.w.r.r.r.r.t.t.r.r.r.t.t.t.t.t.t.w.%.+.q.r.a..Xn.xXxXxXxXxXxXxXxXxXxXxXxXxXxXxXxXxXxXxX",
"t 4.2.-.=.xXxXxXpXdX0XiXyX0XC.l.l.j.h.Z.c.6.q.r.u.u.y.r.r.r.u.u.t.t.t.t.t.t.J G q.r.s.|.5.xXxXxXxXxXxXxXxXxXxXxXxXxXxXxXxXxXxXxX",
"xXxXxXxXxXxXxXxXhXlXuXuXuXuXdXuXiXiX,XeXuX8Xm.:.4.4.;.*.X.=.:.e.r.t.t.t.t.t.0.9.r.r.a. X5.xXxXxXxXxXxXxXxXxXxXxXxXxXxXxXxXxXxXxX",
"xXxXxXxXxXxXxXxX8X0XeXtXyXuXuXuXuXuXyX:XyXyX5X:X` T Z Z C B.0XZ.l.4.2.9.2.2.2.q.r.y.!.(.xXxXxXxXxXxXxXxXxXxXxXxXxXxXxXxXxXxXxXxX",
"xXxXxXxXxXxXxXxXU U U ( ) } { :X4X0XiX5X:X,X6XiXeX/ S D ] 6X4XuXiXB.h.x.C.3XZ.m.4.i.I.@.xXxXxXxXxXxXxXxXxXxXxXxXxXxXxXxXxXxXxXxX",
"xXxXxXxXxXxXxXxX! W R b N V P P I U ( ) ' { :X4XeX] m C rXsX7X4X,X5XuXuXuXuXuXuX8XD.h.xXxXxXxXxXxXxXxXxXxXxXxXxXxXxXxXxXxXxXxXxX",
"xXxXxXxXxXxXxX6 ! W P + X # @ > N W T T P T P I C m D M ) :X4X4XeXiXpXuXuXuXuXuXuXsX9XxXxXxXxXxXxXxXxXxXxXxXxXxXxXxXxXxXxXxXxXxX",
"xXxXxXxXxXxXxX6 ! R Q 3 , @ # X 4 W R E , @ , c M S S S m N I U ( ) ' { :X2XeXtXyXhX,XxXxXxXxXxXxXxXxXxXxXxXxXxXxXxXxXxXxXxXxXxX",
"xXxXxXxXxXxXxXL ! R E E E T P I P R R T 1 @ @ A S S S S M : 4 P E T P P Q I U r _ { l xXxXxXxXxXxXxXxXxXxXxXxXxXxXxXxXxXxXxXxXxX",
"xXxXxXxXxXxXxXL ! P R Q E E E E E T E T W Q Q V m S S M : # + I E E 3 + @ , 2 2 3 T 6 xXm.S.z xXxXxXxXxXxXxXxXxXxXxXxXxXxXxXxXxX",
"xXxXxXxXxXxXxXxX, 4 4 b b P T T E E W T E R R W T m m V T P P E E E b > + 1 c c L ~ >.d.y.R.S.xXxXxXxXxXxXxXxXxXxXxXxXxXxXxXxXxX",
"xXxXxXxXxXxXxXxXxXxX6 N 1 1 1 1 4 3 N P P T W W W P P R E E E E E E E v x v 3 J :.w.w.2.r.Y.xXxXxXxXxXxXxXxXxXxXxXxXxXxXxXxXxXxX",
"xXxXxXxXxXxXxXxXxXxXQ n v v c c 2 xXxXxXxX1 4 3 N V P Q T E E E E E P c v v K r.7.%.xX=.a.H.xXxXxXxXxXxXxXxXxXxXxXxXxXxXxXxXxXxX",
"xXxXxXxXxXxXxXxXxXI V v v v v v x xXxXxXxXxXxXxXxXxXxX, 4 6 b I P P n v v v ^ K I xXxX3.Y.xXxXxXxXxXxXxXxXxXxXxXxXxXxXxXxXxXxXxX",
"xXxXxXxXxXxXxXxXxXL N c v v v v 2 xXxXxXxXxXxXxXxXxXxXxXxXxXxXxXxX, x v v v x x P xX;XZ.m.xXxXxXxXxXxXxXxXxXxXxXxXxXxXxXxXxXxXxX",
"xXxXxXxXxXxXxXxXxXxXr r 2 2 2 2 xX      xXxXxXxXxXxXxXxXxXxXxXxXxXxXxX1 2 c x x 1 xXwXeX= xXxXxXxXxXxXxXxXxXxXxXxXxXxXxXxXxXxXxX",
"xXxXxXxXxXxXxXxXxXxXS.i.J xXxXxXxX        xXxXxXxXxXxXxXxXxXxXxXxXxXxXxXxXxX> xXxX{ :X-       xXxXxXxXxXxXxXxXxXxXxXxXxXxXxXxXxX",
"xXxXxXxXxXxXxXxXxXxXY.t.xXxXxXxX5Xl .     xXxXxXxXxXxXxXxXxXxXxXxXxXxXxXxXxXxXxXxXrX5 . * * o   xXxXxXxXxXxXxXxXxXxXxXxXxXxXxXxX",
"xXxXxXxXxXxXxXxXxX~.L.9.xXaXyX7XiXk     xXxXxXxXxXxXxXxXxXxXxXxXxXxXxXxXxXxXxXxX5X,Xo i h h a o xXxXxXxXxXxXxXxXxXxXxXxXxXxXxXxX",
"xXxXxXxXxXxXxXxXxX/.a.e.4.Z.<X{ xXxX      xXxXxXxXxXxXxXxXxXxXxXxXxXxXxXxXxXxX:XuXk o s h h h & xXxXxXxXxXxXxXxXxXxXxXxXxXxXxXxX",
"xXxXxXxXxXxXxXxXxX~.s.9.=.xXxXxXxXxX        xXxXxXxXxXxXxXxXxXxXxXxXxXxXxXxXxX6XuX= & h h h h * xXxXxXxXxXxXxXxXxXxXxXxXxXxXxXxX",
"xXxXxXxXxXxXxXxXxXxXxXxXxXxXxXxXxX. & O     xXxXxXxXxXxXxXxXxXxXxXxXxXxXxXxX. - d o i h h s s xXxXxXxXxXxXxXxXxXxXxXxXxXxXxXxXxX",
"xXxXxXxXxXxXxXxXxXxXxXxXxXxXxXxXxXo [ =     xXxXxXxXxXxXxXxXxXxXxXxXxXxXxX      O = g g s a xXxXxXxXxXxXxXxXxXxXxXxXxXxXxXxXxXxX",
"xXxXxXxXxXxXxXxXxXxXxXxXxXxXxXxXxX. o .   xXxXxXxXxXxXxXxXxXxXxXxXxXxXxX      O 8 p p a xXxXxXxXxXxXxXxXxXxXxXxXxXxXxXxXxXxXxXxX",
"xXxXxXxXxXxXxXxXxXxXxXxXxXxXxXxXxXxXxXxXxXxXxXxXxXxXxXxXxXxXxXxXxXxXxXxXxX. * s s p i xXxXxXxXxXxXxXxXxXxXxXxXxXxXxXxXxXxXxXxXxX",
"xXxXxXxXxXxXxXxXxXxXxXxXxXxXxXxXxXxXxXxXxXxXxXxXxXxXxXxXxXxXxXxXxXxXxXxXxX* s h g s 8 xXxXxXxXxXxXxXxXxXxXxXxXxXxXxXxXxXxXxXxXxX",
"xXxXxXxXxXxXxXxXxXxXxXxXxXxXxXxXxXxXxXxXxXxXxXxXxXxXxXxXxXxXxXxXxXxXxXxXxXxXp a a xXxXxXxXxXxXxXxXxXxXxXxXxXxXxXxXxXxXxXxXxXxXxX"
};
