/* XPM */
static char *result[] = {
/* columns rows colors chars-per-pixel */
"64 64 222 2 ",
"   c #040404",
".  c #0C0C0C",
"X  c #151515",
"o  c #12110C",
"O  c #34240D",
"+  c #342712",
"@  c #102735",
"#  c #222222",
"$  c #343435",
"%  c #0C1F2B",
"&  c #573A17",
"*  c #462D15",
"=  c #643F13",
"-  c #4B3A20",
";  c #68441A",
":  c #7B4F1C",
">  c #564725",
",  c #5D4F39",
"<  c #694F26",
"1  c #6B5026",
"2  c #795826",
"3  c #7A7539",
"4  c #6D6935",
"5  c #19394C",
"6  c #565759",
"7  c #484949",
"8  c #7D785D",
"9  c #79734A",
"0  c #5E5E61",
"q  c #46696E",
"w  c #67676A",
"e  c #797767",
"r  c #747477",
"t  c #933E27",
"y  c #88571D",
"u  c #885D25",
"i  c #935F20",
"p  c #AF5336",
"a  c #85622C",
"s  c #8B662D",
"d  c #8E682F",
"f  c #966121",
"g  c #916A2E",
"h  c #956E31",
"j  c #887538",
"k  c #9C7734",
"l  c #9B702F",
"z  c #A47631",
"x  c #AC7C35",
"c  c #A87A37",
"v  c #B27E3B",
"b  c #A66731",
"n  c #C95238",
"m  c #E5573D",
"M  c #837A42",
"N  c #95714C",
"B  c #AE7D6E",
"V  c #AC5C4B",
"C  c #87823C",
"Z  c #999936",
"A  c #B5823D",
"S  c #B88639",
"D  c #C48E3B",
"F  c #C6903C",
"G  c #CA933D",
"H  c #8B8747",
"J  c #928D44",
"K  c #978D48",
"L  c #96914A",
"P  c #9A954A",
"I  c #9E994B",
"U  c #999345",
"Y  c #989357",
"T  c #B68441",
"R  c #BE8A43",
"E  c #B88842",
"W  c #A39D4C",
"Q  c #A49949",
"!  c #A99256",
"~  c #AAA34D",
"^  c #A8A548",
"/  c #ACBB46",
"(  c #B4B74B",
")  c #AAA450",
"_  c #ABA552",
"`  c #B3AC52",
"'  c #B9A759",
"]  c #BDBB5D",
"[  c #BAB655",
"{  c #85866F",
"}  c #979467",
"|  c #9A957D",
" . c #AB8A63",
".. c #BB886B",
"X. c #BF8D78",
"o. c #AB9778",
"O. c #B89978",
"+. c #B69869",
"@. c #A8A675",
"#. c #BCB977",
"$. c #B2AD6F",
"%. c #C18E45",
"&. c #C59147",
"*. c #C99549",
"=. c #CD994C",
"-. c #C79348",
";. c #D19D4F",
":. c #C3BC54",
">. c #C2BB59",
",. c #C1B555",
"<. c #C2B451",
"1. c #E7BF5F",
"2. c #C38A74",
"3. c #D18E7D",
"4. c #D3937E",
"5. c #C3BD63",
"6. c #C2BC6D",
"7. c #C3BE79",
"8. c #B9C44D",
"9. c #BFC850",
"0. c #CAC355",
"q. c #CCCB56",
"w. c #CCC45C",
"e. c #C8C956",
"r. c #D3CC5C",
"t. c #D3CA5B",
"y. c #DCD45E",
"u. c #D6D75B",
"i. c #CAD056",
"p. c #C3C363",
"a. c #CBCB6C",
"s. c #CBC468",
"d. c #D4CC62",
"f. c #D7CC60",
"g. c #DCD363",
"h. c #DFDC62",
"j. c #DAD66B",
"k. c #CAC876",
"l. c #D3CF72",
"z. c #D2D373",
"x. c #DCDC7C",
"c. c #D5D67B",
"v. c #E4DC65",
"b. c #E5DC6A",
"n. c #F3D769",
"m. c #EBC876",
"M. c #E1DC72",
"N. c #F0D16F",
"B. c #E6E364",
"V. c #EAE466",
"C. c #ECE46A",
"Z. c #EEE869",
"A. c #F3E56A",
"S. c #F4EB6C",
"D. c #F9EF6E",
"F. c #FBF16F",
"G. c #F9E172",
"H. c #FEF471",
"J. c #FFF973",
"K. c #E3CD5B",
"L. c #467E99",
"P. c #7E7D82",
"I. c #3D90BE",
"U. c #56839A",
"Y. c #4D92B9",
"T. c #6294B1",
"R. c #419ACB",
"E. c #4094C3",
"W. c #429DD0",
"Q. c #848587",
"!. c #999998",
"~. c #95968F",
"^. c #A3948B",
"/. c #B7B485",
"(. c #B6B495",
"). c #AEA68E",
"_. c #88A7B9",
"`. c #95B1A5",
"'. c #ADAEAE",
"]. c #BBBAA8",
"[. c #BBBAB6",
"{. c #A8B6B5",
"}. c #E59B89",
"|. c #C0BE9F",
" X c #ECA18D",
".X c #C4B7AF",
"XX c #D69380",
"oX c #BFC0B1",
"OX c #DADC81",
"+X c #CAC795",
"@X c #E3E485",
"#X c #E6E789",
"$X c #E7E889",
"%X c #E9EA8C",
"&X c #C8C6A5",
"*X c #D8D6A7",
"=X c #C6C3B9",
"-X c #D2CBB6",
";X c #E4E1B8",
":X c #EECFA4",
">X c #9BB4C3",
",X c #BEBEC0",
"<X c #ADCDD2",
"1X c #A7D8F4",
"2X c #C2C2C2",
"3X c #CBCCCD",
"4X c #C7C7C8",
"5X c #D9D4CA",
"6X c #C6CED2",
"7X c #DDDCDB",
"8X c #D6D4D3",
"9X c #E1DED7",
"0X c #F2DAC5",
"qX c #E5E4C3",
"wX c #DDDEE0",
"eX c #E5E5E5",
"rX c #EAEAEB",
"tX c #E6E8E9",
"yX c #FFFFFF",
"uX c #F6F5F5",
"iX c #F8EDE9",
"pX c None",
/* pixels */
"pXpXpXpXpXpXpXpXpXpXpXpXpXpXpXpXpXpXpXpXpXpXpXpXpXpXpXpXpXpXpXpXpXpXpXpXpXpXpXpXpXpXpXpXpXpXpXpXpXpXpXpXpXpXpXpXpXpXpXpXpXpXpXpX",
"pXpXpXpXpXpXpXpXpXpXpXpXpXpXpXpXpXpXpXpXpXpXpXpXpXpXpXpXpXpXpXpXpXpXpXpXpXpXpXpXpXpXpXpXpXpXpXpXpXpXpXpXpXpXpXpXpXpXpXpXpXpXpXpX",
"pXpXpXpXpXpXpXpXpXpXpXpXpXpXpXpXpXpXH H L _ pXpXpXpXpXpXpXpXpXpXpXpXpXpXpXpXpXpXpXpXpXpXpXpXpXpXpXpXpXpXpXpXpXpXpXpXpXpXpXpXpXpX",
"pXpXpXpXpXpXpXpXpXpXpXpXpXpXpXpXpXW v.w.g.d.~ pXpXpXpXpXpXpXpXpXpXpXpXT R &.-.*.*.*.-.R T pXpXpXpXpXpXpXpXpXpXpXpXpXpXpXpXpXpXpX",
"pXpXpXpXpXpXpXpXpXpXpXpXA %.R R R E [ W W P j R E %.R A %.R E R A A %.=.*.&.R R %.%.%.-.=.*.R pXpXpXpXpXpXpXpXpXpXpXpXpXpXpXpXpX",
"pXpXpXpXpXpXpXpXpXpXpXpXv &.&.%.R T c j r.b.Q T R R R A &.&.&.*.R %.;.=.T pXpXpXpXpXpXpXT -.;.&.pXpXpXpXpXpXpXpXpXpXpXpXpXpXpXpX",
"pXpXpXpXpXpXpXpXpXpXpXpXpXpXpXpXpXj g.f.w.A._ pXpXpXpXpXpXpXpXpXc x R =.*.E T pXpXpXpXpXpXR ;.=.A pXpXpXpXpXpXpXpXpXpXpXpXpXpXpX",
"pXpXpXpXpXpXpXpXpXpXpXpXpXpXpXpXpXpXQ b.[ _ pXpXpXpXpXpXpXpXpXpXpXpXpXx %.=.*.*.&.&.%.&.=.;.=.%.pXpXpXpXpXpXpXpXpXpXpXpXpXpXpXpX",
"pXpXpXpXpXpXpXpXpXpXpXpXpXpXpXpXpXpXpX` pXpXpXpXpXpXpXpXpXpXpXpXpXpXpXpXpXx E %.-.*.-.-.%.R v pXpXpXpXpXpXpXpXpXpXpXpXpXpXpXpXpX",
"pXpXpXpXpXpXpXpXpXpXpXpXpXpXpXpXpXpXH W pXpXpXpXpXpXpXpXpXpXpXpXpXpXpXpXpXpXpXpXpXpXpXpXpXpXpXpXpXpXpXpXpXpXpXpXpXpXpXpXpXpXpXpX",
"pXpXpXpXpXpXpXpXpXpXpXpXpXpXpXpXpXpXH I pXpXpXpXpXpXpXpXpXpXpXpXpXpXpXpXpXpXpXpXpXpXpXpXpXpXpXpXpXpXpXpXpXpXpXpXpXpXpXpXpXpXpXpX",
"pXpXpXpXpXpXpXpXpXpXpXpXpXpXpXpXpXpXH L pXpXpXpXpXpXpXpXpXpXpXpXpXpXpXpXpXpXpXpXpXpXpXpXpXpXpXpXpXpXpXpXpXpXpXpXpXpXpXpXpXpXpXpX",
"pXpXpXpXpXpXpXpXpXpXpXpXpXpXpXpXpXpXJ J pXpXpXpXpXpXpXpXpXpXpXpXpXpXpXpXpXpXpXpXpXpXpXpXpXpXpXpXpXpXpXpXpXpXpXpXpXpXpXpXpXpXpXpX",
"pXpXpXpXpXpXpXpXpXpXpXpXpXpXpXpXpXpXP H pXpXpXpXpXpXpXpXpXpXpXpXpXpXpXpXpXpXpXpXpXpXpXpXpXpXpXpXpXpXpXpXpXpXpXpXpXpXpXpXpXpXpXpX",
"pXpXpXpXpXpXpXpXpXpXpXpXpXpXpXpXpXpXI pXpXpXpXpXpXpXpXpXpXpXpXpXpXpXpXpXpXpXpXpXpXpXpXpXpXpXpXpXpXpXpXpXpXpXpXpXpXpXpXpXpXpXpXpX",
"pXpXpXpXpXpXpXpXpXpXpXpXpXpXpXpXpXpXW pXpXpXpXpXpXpXpXpXpXpXpXpXpXpXpXpXpXpXpXpXpXpXpXpXpXpXpXpXpXpXpXpXpXpXpXpXpXpXpXpXpXpXpXpX",
"pXpXpXpXpXpXpXpXpXpXpXpXpXpXpXpXpXpX` pXpXpXpXpXpXpXpXpXpXpXpXpXpXpXpXpXpXpXpXpXpXpXpXpXpXpXpXpXpXpXpXpXpXpXpXpXpXpXpXpXpXpXpXpX",
"pXpXpXpXpXpXpXpXpXpXpXpXpXpXpXpXpXpX_ pXpXpXpXpXpXpXpXpXpXpXpXpXpXpXpXpXpXpXpXpXpXpXpXpXpXpXpXpXpXpXpXpXpXpXpXpXpXpXpXpXpXpXpXpX",
"pXpXpXpXpXpXpXpXpXpXpXpXpXpXpXpXpXpX> pXpXpXpXpXpXpXpXpXpXpXpXpXpXpXpXpXpXpXpXpXpXpXpXpXpXpXpXpXpXpXpXpXpXpXpXpXpXpXpXpXpXpXpXpX",
"pXpXpXpXpXpXpXpXpXpXpXpXpXpXpXpXpXpXpXpXpXpXpXpXpXpXpXpXpXpXpXpXpXpXpXpXpXpXpXpXpXpXpXpXpXpXpXpXpXpXpXpXpXpXpXpXpXpXpXpXpXpXpXpX",
"pXpXpXpXpXpXpXpXpXpXpXpXpXpXpXpXpXpXpX^ C pXpXpXpXpXpXpXpXpXpXpXpXpXpXpXpXpXpXpXpXpXpXpXpXpXpXpXpXpXpXpXpXpXpXpXpXpXpXpXpXpXpXpX",
"pXpXpXpXpXpXpXpXpXpXpXpXpXpXpXt.r.0.v.Z.V.v.y.y.b.v.y.q.q.r.y.g.q.q.t.r.y.q.:.pXpXpXq.[ pXpXpXpXpXpXpXpXpXpXpXpXpXpXpXpXpXpXpXpX",
"pXpXpXpXpXpXpXpXpXpXpXpXpXpXpXV.H.H.H.H.J.H.H.H.H.H.H.D.D.H.H.H.H.F.F.H.H.H.F.A.Z.S.D.A.e.pXpXpXpXpXpXpXpXpXpXpXpXpXpXpXpXpXpXpX",
"pXpXpXpXpXpXpXpXpXpXpXpXpXpXpXt.H.u.B.D.A.H.w.>.H.D.D.H.H.D.H.A.g.H.H.H.H.H.H.H.H.H.H.F.j.z.pXpXpXpXpXpXpXpXpXpXpXpXpXpXpXpXpXpX",
"pXpXpXpXpXpXpXpXpXpXpXpXpXpXpX0.S.9.h.v.C Z.I C J.U i.J.V.C F.>.C J.w.r.H.H.A.h.Z.F.H.F.j.%Xx.pXpXpXpXpXpXpXpXpXpXpXpXpXpXpXpXpX",
"pXpXpXpXpXpXpXpXpXpXpXpXpXpXpXq.F.S.F.D.9 } ).| } 4 Z.H.F.3 P Y 9 ] 4 0.H.H.i./ 8.S.H.V.x.%X%Xz.pXpXpXpXpXpXpXpXpXpXpXpXpXpXpXpX",
"pXpXpXpXpXpXpXpXpXpXpXpXpXpXpXy.H.J.S.H L.T.eXyXrX(.5.H.~ q L.8XrX2Xe q.J.F.i./ / B.F.j.%X$X$X$Xx.pXpXpXpXpXpXpXpXpXpXpXpXpXpXpX",
"pXpXpXpXpXpXpXpXpXpXpXpXpXpXpXv.H.J.I   5 R.{.yXyXyX].L o @ R.>XyXyXuX).h.J.B.e.i.D.S.x.a.z.%X%X%Xa.pXpXpXpXpXpXpXpXpXpXpXpXpXpX",
"pXpXpXpXpXpXpXpXpXpXpXpXpXpXpXq.H.B.q @ 5 W._.yXyXyXeXq @ 5 R._.yXyXyXeX$.F.F.H.F.F.Z.z.Z ] %X%X#X] pXpXpXpXpXpXpXpXpXpXpXpXpXpX",
"pXpXpXpXpXpXpXpXpXpXpXpXpXpXpX0.H.5.U.E.W.Y.3XyXyXyX3XU.E.E.Y.6XyXyXuXiXo.b.H.D.D.D.g.a.Z ] %X%Xl.pXpXpXpXpXpXpXpXpXpXpXpXpXpXpX",
"pXpXpXpXpXpXpXpXpXpXpXpXpXpXpXr.H.6.3X_._.<XyXyXyXyX2X3X>X_.6XyXyXiX:XN.K.1.n.u.u.B.x.z.Z z.%X@X] pXpXpXpXpXpXpXpXpXpXpXpXpXpXpX",
"pXpXpXpXpXpXpXpXpXpXpXpXpXpXpXy.H.6.=X7XuXyXyXyXyXyX2XeXyXyXyXyXyX:XA.G.n.A.n.F.Z.j.#X@Xz.@X#X#XpXpXpXpXpXpXpXpXpXpXpXpXpXpXpXpX",
"pXpXpXpXpXpXpXpXpXpXpXpXpXpXpXr.D.` p.a.(.rXyXyXyXyX4X4XyXyXyXyXyX0Xm.F.t.>.v.1.y.g.%X%X%Xp.z.@XpXpXpXpXpXpXpXpXpXpXpXpXpXpXpXpX",
"pXpXpXpXpXpXpXpXpXpXpXpXpXpXpX:.A.J C.H.C.#.8XyXyXyX[.| uXyXyXyXyXyX0XOX>.N ..X.2. .z.%X@X^ a.a.pXpXpXpXpXpXpXpXpXpXpXpXpXpXpXpX",
"pXpXpXpXpXpXpXpXpXpXpXpXpXpXpXpXA.Q ~ H.H.D.s.&XeX[.] s.].uXyXyXyXyXeX$.f.2.}.}. X}.2.l.#Xp.x.] pXpXpXpXpXpXpXpXpXpXpXpXpXpXpXpX",
"pXpXpXpXpXpXpXpXpXpXpXpXpXpXpX:.D.V.3 W S.H.H.C.6.L v.H.g./.4X7X7X=X@.v.5.N B 2.}. X}.2.OX%X@XpXpXpXpXpXpXpXpXpXpXpXpXpXpXpXpXpX",
"pXpXpXpXpXpXpXpXpXpXpXpXpXpXpXq.F.H.C.P 3 ` B.D.H.A.A.J.H.A.d.5.5.d.S.J.' 3.}.}.4. X X4.#.c.k.pXpXpXpXpXpXpXpXpXpXpXpXpXpXpXpXpX",
"pXpXpXpXpXpXpXpXpXpXpXpXpXpXpXy.H.F.D.F.j.) U ^ ` >.v.H.H.H.J.H.H.H.J.g.K 2.}. X X X X4.^..X!.7 pXpXpXpXpXpXpXpXpXpXpXpXpXpXpXpX",
"pXpXpXpXpXpXpXpXpXpXpXpXpXpXpXt.F.h.8.i.D.J.H.A.Z.S.H.H.J.H.H.H.J.H.d._ A.y...3. X X X^.9XyX(.P W W I L pXpXpXpXpXpXpXpXpXpXpXpX",
"pXpXpXpXpXpXpXpXpXpXpXpXpXpXpX( S.u./ / h.H.H.H.H.H.A.d.g.v.v.v.0.$..X&XC.F.A.'  .2.B .XyXuX/.' L P ~ ` w.w.W pXpX9 [ ` pXpXpXpX",
"pXpXpXpXpXpXpXpXpXpXpXpXpXpXpXpXV.B.8.8.h.J.F.H.H.H.F.A.g.w.@.=X} /.yXrXk.Z.S.Z.z.OX#.'.7XrX3XU.pXpXpXpXpXL d.d.~ g.~ pXpXpXpXpX",
"pXpXpXpXpXpXpXpXpXpXpXpXpXpXpXpXA.F.Z.V.F.F.H.H.H.H.H.H.H.D.-XyX|.k.rXeX$.h.g.B.@X%X%Xk.@.@.8 pXpXpXpXpXpXpXI H.H.J.w.pXpXpXpXpX",
"pXpXpXpXpXpXpXpXpXpXpXpXpXpXpX0.F.H.H.H.H.H.H.H.H.H.H.H.H.D.+X9X(.f./.k.C.H.F.C.@X#X@X%X#Xa.pXpXpXpXpXpXJ g.d.[ v.D.d.>.>.M pXpX",
"pXpXpXpXpXpXpXpXpXpXpXpXpXpXpX:.S.F.V.V.H.D.H.H.H.H.H.H.H.H.j.j.C.G.N.n.H.H.H.B.OXp.( a.p.p.pXpXpXpXpXpXpX~ pXpXH ~ pXpX` _ pXpX",
"pXpXpXpXpXpXpXpXpXpXpXpXpXpXpXpXB.H.i.e.D.H.H.F.H.H.H.F.H.H.H.H.G.G.G.G.h.B.J.j.x.^ ^ p.a.a.pXpXpXpXpXpXpXpXpXpXpX[ pXpXpXpXpXpX",
"pXpXpXpXpXpXpXpXpXpXpXpXpXpXpXpXh.F.D.Z.H.H.H.H.H.H.H.H.H.H.H.H.H.H.H.C./ 8.Z.M.c.Z [ %X@Xp.pXpXpXpXpXpXpXpXpXpXpXd.3 pXpXpXpXpX",
"pXpXpXpXpXpXpXpXpXpXpXpXpXpXpXpXh.F.H.H.H.F.H.H.H.H.H.H.H.H.F.H.H.H.H.A.8.9.S.M.x./ c.%Xc.pXpXpXpXpXpXpXpXpXpXpXpXM pXpXpXpXpXpX",
"pXpXpXpXpXpXpXpXpXpXpXpXpXpXpXpXt.A.C.B.V.S.D.C.V.A.H.H.H.F.F.F.H.H.H.H.S.S.F.M.$X$X#X%Xa.pXpXpXpXpXpXpXpXpXpXpXpXpXpXpXpXpXpXpX",
"pXpXpXpXpXpXpXpXpXpXpXpXpXpXpXpXpX&X;XqXqX*X#.;X;X+X<.K.v.j.l.l.b.V.A.V.Z.S.V.a.OXOXOXc.] pXpXpXpXpXpXpXpXpXpXpXpXpXpXpXpXpXpXpX",
"pXpXpXpXpXpXpXpXpXpXpXpXpXpXpXpXpX8XyXyXyXyXtX6XwX,XV n o.5XuXrX=X&X;XqX;X;X&X{.<X<X<X`.pXpXpXpXpXpXpXpXpXpXpXpXpXpXpXpXpXpXpXpX",
"pXpXpXpXpXpXpXpXpXpXpXpXpXpXpXpXpX!.-X-X5X9X9X5X[.3XX.V 8X8X.X<XwXuXyXyXyXyXeX<X1X1X1X_.pXpXpXpXpXpXpXpXpXpXpXpXpXpXpXpXpXpXpXpX",
"pXpXpXpX# pXpXpXpXpXpXpXpXpXpXpXpXh A 2 2 c S T N M p n N  .N  .+.o.O.O.).).o.w e 8 9 , pXpXpXpXpXpXpXpXpXpXpXpXpXpXpXpXpXpXpXpX",
"pXpXpXQ.w . pXpXpXpXpXpXpXpXpXpXpXk x * * a G g O O n m t O O y G a O O 2 D z y & O & = pXpXpX.   . pXpXpXpXpXpXpXpXpXpXpXpXpXpX",
"pXpXw !.Q.X pXpXpXpXpXpXpXpXpXpX- a F F D F G D v x p n b b l v G x 2 2 l G x i : ; y = pXpXpX      X pXpXpXpXpXpXpXpXpXpXpXpXpX",
"pXpXpX!.w . pXpXpXpXpXH L pXpXa x z D F F F G G G G v b D G G G G G G G G G z u f f i & pXpXpX. # .       . pXpXpXpXpXpXpXpXpXpX",
"pXpXpXP.$   pXpXpXP.{ [ w.d.d.,.j D G F F F D D G F F G F F G G G G G G G G z i f i y & pXpXpXpX,X0   . X   pXpXpXpXpXpXpXpXpXpX",
"pXpXpX7 7   pX'..X^.6 pXpXpX9 U k &.G a > 1 1 < 1 2 2 2 2 2 2 a s s d d d h 2 ; ; 2 2 u pXpXpXpX8X'.pX. .   pXpXpXpXpXpXpXpXpXpX",
"pXpXpX6 0 . $ '.Q.pXpXpXpXpXpXg R S a + pXpXpXpXpXpXpXpXpXpXpXpXpXpXpXpXpXpXpXpX1 S F G a pXpXpX.X^.pXpX. pXpXpXpXpXpXpXpXpXpXpX",
"pXpXpXw Q.#   pXpXpXpXpXpXpXpX< a > pXpXpXpXpXpXpXpXpXpXpXpXpXpXpXpXpXpXpXpXpXpXpXh F S j pXpXpX'.!.pXpXpXpXpXpXpXpXpXpXpXpXpXpX",
"pXpXpXpXr $   pXpXpXpXpXpXpXpXpXpXpXpXpXpXpXpXpXpXpXpXpXpXpXpXpXpXpXpXpXpXpXpXpXpXpXd 1 ` g.P pX^.{ pXpXpXpXpXpXpXpXpXpXpXpXpXpX",
"pXpXpXpXpXpXpXpXpXpXpXpXpXpXpXpXpXpXpXpXpXpXpXpXpXpXpXpXpXpXpXpXpXpXpXpXpXpXpXpXpXpXpXpXpXW g.>.r.W pXpXpXpXpXpXpXpXpXpXpXpXpXpX",
"pXpXpXpXpXpXpXpXpXpXpXpXpXpXpXpXpXpXpXpXpXpXpXpXpXpXpXpXpXpXpXpXpXpXpXpXpXpXpXpXpXpXpXpXpXpXpX>.f.pXpXpXpXpXpXpXpXpXpXpXpXpXpXpX",
"pXpXpXpXpXpXpXpXpXpXpXpXpXpXpXpXpXpXpXpXpXpXpXpXpXpXpXpXpXpXpXpXpXpXpXpXpXpXpXpXpXpXpXpXpXpXpXpXpXpXpXpXpXpXpXpXpXpXpXpXpXpXpXpX",
"pXpXpXpXpXpXpXpXpXpXpXpXpXpXpXpXpXpXpXpXpXpXpXpXpXpXpXpXpXpXpXpXpXpXpXpXpXpXpXpXpXpXpXpXpXpXpXpXpXpXpXpXpXpXpXpXpXpXpXpXpXpXpXpX"
};
