/* XPM */
static char *result[] = {
/* columns rows colors chars-per-pixel */
"64 64 231 2 ",
"   c #030303",
".  c #0B0B0B",
"X  c #141415",
"o  c #000F17",
"O  c #392609",
"+  c #2F2D11",
"@  c #011E28",
"#  c #282829",
"$  c #353537",
"%  c #2E1F06",
"&  c #432705",
"*  c #503710",
"=  c #6C420A",
"-  c #774707",
";  c #6A4A16",
":  c #7A551A",
">  c #7F500D",
",  c #454321",
"<  c #695C31",
"1  c #716D2B",
"2  c #76722D",
"3  c #797431",
"4  c #6B6623",
"5  c #5D4114",
"6  c #003A4F",
"7  c #2A7575",
"8  c #525254",
"9  c #716F51",
"0  c #636569",
"q  c #7A7860",
"w  c #777275",
"e  c #496847",
"r  c #AB3925",
"t  c #9D5D06",
"y  c #935A0B",
"u  c #845C1B",
"i  c #835916",
"p  c #855007",
"a  c #A05F06",
"s  c #8D621A",
"d  c #96681D",
"f  c #AB751D",
"g  c #B3771E",
"h  c #B5572B",
"j  c #827D32",
"k  c #8F742A",
"l  c #BA7D27",
"z  c #B47B25",
"x  c #AE7228",
"c  c #9B5330",
"v  c #D64527",
"b  c #ED472E",
"n  c #9A7949",
"m  c #B17B56",
"M  c #B77C6C",
"N  c #847D71",
"B  c #C97F6E",
"V  c #648F6F",
"C  c #919017",
"Z  c #BE821E",
"A  c #A2A31C",
"S  c #99862D",
"D  c #8B8534",
"F  c #898333",
"G  c #928A36",
"H  c #9B9539",
"J  c #9B9537",
"K  c #8C822F",
"L  c #BE8227",
"P  c #A39C3B",
"I  c #A19B37",
"U  c #A8AA25",
"Y  c #AABD26",
"T  c #ABB62A",
"R  c #BCB728",
"E  c #ABA43C",
"W  c #A7A13E",
"Q  c #B3AB3E",
"!  c #B7A936",
"~  c #BBB23F",
"^  c #B8B83B",
"/  c #C7881E",
"(  c #C38521",
")  c #CC8C21",
"_  c #C4852C",
"`  c #C5882E",
"'  c #C98A2E",
"]  c #C78921",
"[  c #D18F22",
"{  c #D39122",
"}  c #CB8D31",
"|  c #C78A31",
" . c #CE9034",
".. c #D29335",
"X. c #D69739",
"o. c #D99A3B",
"O. c #C3B931",
"+. c #B6C52D",
"@. c #B9C72E",
"#. c #CCC534",
"$. c #C5C732",
"%. c #D4CD39",
"&. c #D7C536",
"*. c #CAD237",
"=. c #DBD33C",
"-. c #D2D73C",
";. c #949150",
":. c #B38657",
">. c #A9874F",
",. c #AAA545",
"<. c #B5AD41",
"1. c #BAAE4A",
"2. c #BCB943",
"3. c #A9A458",
"4. c #B5AF57",
"5. c #B39565",
"6. c #B09575",
"7. c #A7A56C",
"8. c #B3AB71",
"9. c #878564",
"0. c #C4BC43",
"q. c #C8BC4B",
"w. c #C3BD54",
"e. c #CBB44C",
"r. c #C9866B",
"t. c #D78D76",
"y. c #E3917D",
"u. c #C0B56A",
"i. c #EABB49",
"p. c #BEC042",
"a. c #CCC445",
"s. c #C3C44A",
"d. c #CBC74E",
"f. c #D3CA46",
"g. c #D3CA4A",
"h. c #D4C948",
"j. c #DCD34A",
"k. c #DCDA43",
"l. c #CBCB55",
"z. c #CCCB56",
"x. c #D5CE5B",
"c. c #DAD354",
"v. c #D2D35D",
"b. c #DBD858",
"n. c #E5DC43",
"m. c #E5DB4C",
"M. c #E6DC4A",
"N. c #E4DD55",
"B. c #F9D95A",
"V. c #F2CE53",
"C. c #E4E346",
"Z. c #EDE44C",
"A. c #EAE349",
"S. c #F1E74D",
"D. c #F4EB4D",
"F. c #F9EC4F",
"G. c #EBE352",
"H. c #F6EC51",
"J. c #FAEF52",
"K. c #FAE553",
"L. c #FEF454",
"P. c #FFF855",
"I. c #FAF04E",
"U. c #CAC76C",
"Y. c #DCDD6A",
"T. c #D5D765",
"R. c #D5D871",
"E. c #CECC70",
"W. c #E0DF66",
"Q. c #F3C769",
"!. c #DFE170",
"~. c #E2E474",
"^. c #E6E97A",
"/. c #E9EB7C",
"(. c #E5E779",
"). c #0D7597",
"_. c #7F7F83",
"`. c #0089B8",
"'. c #188CB4",
"]. c #3496B7",
"[. c #6F8387",
"{. c #5997AC",
"}. c #0396C8",
"|. c #359DC0",
" X c #45A3C2",
".X c #6FABC0",
"XX c #878788",
"oX c #989999",
"OX c #91918A",
"+X c #B2968B",
"@X c #AAA783",
"#X c #B8B699",
"$X c #B2B58E",
"%X c #999CA3",
"&X c #8DB1BD",
"*X c #B7B7A8",
"=X c #AFB1B5",
"-X c #F59A86",
";X c #F99D88",
":X c #F39885",
">X c #EC9681",
",X c #C2B48F",
"<X c #C4B4AB",
"1X c #9ECABD",
"2X c #D5D294",
"3X c #E7D194",
"4X c #C6C5B6",
"5X c #D0C7B4",
"6X c #EBD9A8",
"7X c #E4E2A7",
"8X c #E7E5B9",
"9X c #95BED0",
"0X c #A5CAD1",
"qX c #9BD8F8",
"wX c #C6C6C4",
"eX c #D9D6CA",
"rX c #CDCFD2",
"tX c #DDDEDD",
"yX c #D6D6D4",
"uX c #D1CFC6",
"iX c #E0DED9",
"pX c #E0D9CE",
"aX c #F2E4DA",
"sX c #EBEBEB",
"dX c #E0E0E3",
"fX c #F2EEEC",
"gX c #F4F4F4",
"hX c #FFFEFF",
"jX c #F7F5F7",
"kX c #F3F3EB",
"lX c None",
/* pixels */
"lXlXlXlXlXlXlXlXlXlXlXlXlXlXlXlXlXlXlXlXlXlXlXlXlXlXlXlXlXlXlXlXlXlXlXlXlXlXlXlXlXlXlXlXlXlXlXlXlXlXlXlXlXlXlXlXlXlXlXlXlXlXlXlX",
"lXlXlXlXlXlXlXlXlXlXlXlXlXlXlXlXlXlXlXlXlXlXlXlXlXlXlXlXlXlXlXlXlXlXlXlXlXlXlXlXlXlXlXlXlXlXlXlXlXlXlXlXlXlXlXlXlXlXlXlXlXlXlXlX",
"lXlXlXlXlXlXlXlXlXlXlXlXlXlXlXlXlXlXlXlXlXlXlXlXlXlXlXlXlXlXlXlXlXlXlXlXlXlXlXlXlX,.P H j D lXlXlXlXlXlXlXlXlXlXlXlXlXlXlXlXlXlX",
"lXlXlXlXlXlXlXlXlXlXlXlXlXlXlXlXlXlXl _ | ..........} _ lXlXlXlXlXlXlXlXlXlXlXlXlXa.0.M.h.j.lXlXlXlXlXlXlXlXlXlXlXlXlXlXlXlXlXlX",
"lXlXlXlXlXlXlXlXlXlXlXlXlXlXlXlXl | X.X. .| ' | ' |  ...X.' l _ ` _ | _ ( | _ ' z D H P <.! _ ' ' | ' l lXlXlXlXlXlXlXlXlXlXlXlX",
"lXlXlXlXlXlXlXlXlXlXlXlXlXlXlXl ..o.} lXlXlXlXlXlXlXlX_ o.X._ ' } }  .' l | _ ' z ~ N.2.k z _ ' } } ' z lXlXlXlXlXlXlXlXlXlXlXlX",
"lXlXlXlXlXlXlXlXlXlXlXlXlXlXlX_ o.X.L lXlXlXlXlXlXl ' X..._ g z lXlXlXlXlXlXlXlXlXh.M.q.m.O.lXlXlXlXlXlXlXlXlXlXlXlXlXlXlXlXlXlX",
"lXlXlXlXlXlXlXlXlXlXlXlXlXlXlXl ..o.o.....} } ..X.X..._ f lXlXlXlXlXlXlXlXlXlXlXlXlX<.q.m.3 lXlXlXlXlXlXlXlXlXlXlXlXlXlXlXlXlXlX",
"lXlXlXlXlXlXlXlXlXlXlXlXlXlXlXlXlXL _ } ......} ' l g lXlXlXlXlXlXlXlXlXlXlXlXlXlXlXlXlX~ lXlXlXlXlXlXlXlXlXlXlXlXlXlXlXlXlXlXlX",
"lXlXlXlXlXlXlXlXlXlXlXlXlXlXlXlXlXlXlXlXlXlXlXlXlXlXlXlXlXlXlXlXlXlXlXlXlXlXlXlXlXlXlXlX,.lXlXlXlXlXlXlXlXlXlXlXlXlXlXlXlXlXlXlX",
"lXlXlXlXlXlXlXlXlXlXlXlXlXlXlXlXlXlXlXlXlXlXlXlXlXlXlXlXlXlXlXlXlXlXlXlXlXlXlXlXlXlXlXlXW lXlXlXlXlXlXlXlXlXlXlXlXlXlXlXlXlXlXlX",
"lXlXlXlXlXlXlXlXlXlXlXlXlXlXlXlXlXlXlXlXlXlXlXlXlXlXlXlXlXlXlXlXlXlXlXlXlXlXlXlXlXlXlXlXP lXlXlXlXlXlXlXlXlXlXlXlXlXlXlXlXlXlXlX",
"lXlXlXlXlXlXlXlXlXlXlXlXlXlXlXlXlXlXlXlXlXlXlXlXlXlXlXlXlXlXlXlXlXlXlXlXlXlXlXlXlXlXlXlXP 2 lXlXlXlXlXlXlXlXlXlXlXlXlXlXlXlXlXlX",
"lXlXlXlXlXlXlXlXlXlXlXlXlXlXlXlXlXlXlXlXlXlXlXlXlXlXlXlXlXlXlXlXlXlXlXlXlXlXlXlXlXlXlXlXP 3 lXlXlXlXlXlXlXlXlXlXlXlXlXlXlXlXlXlX",
"lXlXlXlXlXlXlXlXlXlXlXlXlXlXlXlXlXlXlXlXlXlXlXlXlXlXlXlXlXlXlXlXlXlXlXlXlXlXlXlXlXlXlXlXH j lXlXlXlXlXlXlXlXlXlXlXlXlXlXlXlXlXlX",
"lXlXlXlXlXlXlXlXlXlXlXlXlXlXlXlXlXlXlXlXlXlXlXlXlXlXlXlXlXlXlXlXlXlXlXlXlXlXlXlXlXlXlXlXH D lXlXlXlXlXlXlXlXlXlXlXlXlXlXlXlXlXlX",
"lXlXlXlXlXlXlXlXlXlXlXlXlXlXlXlXlXlXlXlXlXlXlXlXlXlXlXlXlXlXlXlXlXlXlXlXlXlXlXlXlXlXlXlXG H lXlXlXlXlXlXlXlXlXlXlXlXlXlXlXlXlXlX",
"lXlXlXlXlXlXlXlXlXlXlXlXlXlXlXlXlXlXlXlXlXlXlXlXlXlXlXlXlXlXlXlXlXlXlXlXlXlXlXlXlXlXlXlXD H lXlXlXlXlXlXlXlXlXlXlXlXlXlXlXlXlXlX",
"lXlXlXlXlXlXlXlXlXlXlXlXlXlXlXlXlXlXlXlXlXlXlXlXlXlXlXlXlXlXlXlXlXlXlXlXlXlXlXlXlXlXlXlXlX, lXlXlXlXlXlXlXlXlXlXlXlXlXlXlXlXlXlX",
"lXlXlXlXlXlXlXlXlXlXlXlXlXlXlXlXlXlXlXlXlXlXlXlXlXlXlXlXlXlXlXlXlXlXlXlXlXlXlXlXlXlXlXlXlXlXlXlXlXlXlXlXlXlXlXlXlXlXlXlXlXlXlXlX",
"lXlXlXlXlXlXlXlXlXlXlXlXlXlXlXlXlXlXlXlXlXlXlXlXlXlXlXlXlXlXlXlXlXlXlXlXlXlXlXlXlXlXlXC lXlXlXlXlXlXlXlXlXlXlXlXlXlXlXlXlXlXlXlX",
"lXlXlXlXlXlXlXlXlXlXlXlXlXlXlXlXlXlXlXlX#.#.lXlXlX#.%.=.%.%.#.%.=.=.%.%.%.=.M.A.=.=.M.S.S.=.#.=.#.lXlXlXlXlXlXlXlXlXlXlXlXlXlXlX",
"lXlXlXlXlXlXlXlXlXlXlXlXlXlXlXlXlXlX! -.J.J.D.S.D.L.L.L.P.L.F.L.P.L.L.J.L.L.P.L.P.L.P.P.P.L.P.P.%.lXlXlXlXlXlXlXlXlXlXlXlXlXlXlX",
"lXlXlXlXlXlXlXlXlXlXlXlXlXlXlXlXlXs.T.Z.L.L.P.P.L.L.L.L.P.L.F.j.J.L.J.L.L.J.J.J.E G.L.Z.P.-.C.I.O.lXlXlXlXlXlXlXlXlXlXlXlXlXlXlX",
"lXlXlXlXlXlXlXlXlXlXlXlXlXlXlXlXs.~.(.m.L.L.L.C.k.I.P.L.~ S.S.4 S.j.J L.P.E ~ D.4 =.j.S I.*.-.Z.lXlXlXlXlXlXlXlXlXlXlXlXlXlXlXlX",
"lXlXlXlXlXlXlXlXlXlXlXlXlXlXlX2.Y././.b.H.L.C.+.Y k.L.P.J D 1.9 3.2 E P.P.a.< 7.OX$X9 P P.F.H.S.R lXlXlXlXlXlXlXlXlXlXlXlXlXlXlX",
"lXlXlXlXlXlXlXlXlXlXlXlXlXlXl.!./././.~.C.L.*.+.Y C.L.L.,.XXyXfX&X).e j.H.4.4XjXhX0X'.7 Q P.P.L.#.lXlXlXlXlXlXlXlXlXlXlXlXlXlXlX",
"lXlXlXlXlXlXlXlXlXlXlXlXlXlXT./.^.^.s.T.N.P.C.$.-.J.P.2.*XhXhXgX X`.. + 3.rXhXhXfX X}.o % g.L.L.%.lXlXlXlXlXlXlXlXlXlXlXlXlXlXlX",
"lXlXlXlXlXlXlXlXlXlXlXlXlXlXz././.~.A T b.J.L.I.L.L.S.@XhXhXhXfX|.`.@ 6 [.hXhXhXsX].}.@ 6 V L.D.R lXlXlXlXlXlXlXlXlXlXlXlXlXlXlX",
"lXlXlXlXlXlXlXlXlXlXlXlXlXlX^ Y./.^.U A v.M.L.D.J.L.O.<XjXhXhXhX&X}.}.}.[.sXhXhXjX&X}.}.}.V Z.S.lXlXlXlXlXlXlXlXlXlXlXlXlXlXlXlX",
"lXlXlXlXlXlXlXlXlXlXlXlXlXlXlXl././.p.A !.c.A.*.G.V.i.V.Q.6XjXhXgX9X.X0X=XtXhXhXhXfX&X.X0X<Xj.D.lXlXlXlXlXlXlXlXlXlXlXlXlXlXlXlX",
"lXlXlXlXlXlXlXlXlXlXlXlXlXlXlXx.^.^.!.v.^.~.A.S.H.B.K.K.K.V.aXhXhXhXhXhXrXtXhXhXhXhXhXsXtX$Xm.L.#.lXlXlXlXlXlXlXlXlXlXlXlXlXlXlX",
"lXlXlXlXlXlXlXlXlXlXlXlXlXlXlXs.3X@.v././.~.j.c.h.m.Q M.F.Q.fXhXhXhXhXhX=XsXhXhXhXhXyX8.c.,.a.I.$.lXlXlXlXlXlXlXlXlXlXlXlXlXlXlX",
"lXlXlXlXlXlXlXlXlXlXlXlXlXlXlXlXW.^ 0./.^.8.:.r.r.m D V.3XaXhXhXhXhXhXdX9.tXhXhXjX5Xl.H.P.0.! A.lXlXlXlXlXlXlXlXlXlXlXlXlXlXlXlX",
"lXlXlXlXlXlXlXlXlXlXlXlXlXlXlXlXl.b.z.^.u.t.:X;X;X:X:.h.,XjXhXhXhXhXsX8.n.7.uXiX,Xj.L.P.J.j %.n.lXlXlXlXlXlXlXlXlXlXlXlXlXlXlXlX",
"lXlXlXlXlXlXlXlXlXlXlXlXlXlXlXlXl.^./.U.t.;X:X>XB M n K.g.@XuXtXyX4X4.G.I.a.;.v.D.P.L.m.F J L.M.lXlXlXlXlXlXlXlXlXlXlXlXlXlXlXlX",
"lXlXlXlXlXlXlXlXlXlXlXlXlXlXlXlX^ U.R.7.:X-X:X>X:X:XB a.P.G.g.w.w.j.J.L.J.S.H.L.L.j.J 2 ~ L.L.S.R lXlXlXlXlXlXlXlXlXlXlXlXlXlXlX",
"lXlXlXlXlXlXlXlXlXlXlXlXlXlXlXlX0 $X*X6.:X-X;X;X;Xy.m P H.P.L.L.P.P.L.L.L.j.0.Q J J ^ S.I.L.L.L.O.lXlXlXlXlXlXlXlXlXlXlXlXlXlXlX",
"lXlXlXlXlXlXlXlXlXlXlXF H H P H ;.uXhX<X>X:X;X:Xr.e.S.m.,.Z.P.P.L.P.P.P.L.J.S.S.H.L.P.A.@.@.D.I.R lXlXlXlXlXlXlXlXlXlXlXlXlXlXlX",
"lXlXlX2 0.E lXlXlX<.a.s.<.P H H 3.4XhXjX+X:.r.:.e.J.L.x.wX$X1.g.M.M.M.j.j.J.L.L.L.L.P.$.Y +.Z.n.lXlXlXlXlXlXlXlXlXlXlXlXlXlXlXlX",
"lXlXlXlXlXa.a.<.j.0.j lXlXlXlXlXoXdXsXyX$XU.R.v.L.S.Z.$XhXsX3.7.4X3.h.M.J.L.L.L.L.L.L.-.Y @.J.%.lXlXlXlXlXlXlXlXlXlXlXlXlXlXlXlX",
"lXlXlXlX3 m.P.L.G.2 lXlXlXlXlXlXlX;.7.8.R././.W.A.*.j.#XgXpXw.eXhXE.L.P.L.L.L.L.L.L.L.J.C.D.P.n.lXlXlXlXlXlXlXlXlXlXlXlXlXlXlXlX",
"lXlXH a.2.m.J.h.0.j.a.lXlXlXlXlXlXlXY./.^.~.^.W.H.L.L.N.U.U.w.4XeXE.L.L.L.L.L.L.L.L.L.L.P.P.L.Z.lXlXlXlXlXlXlXlXlXlXlXlXlXlXlXlX",
"lXlX0.H lXlX<.lXlXG P lXlXlXlXlXlXlXz.2.z.T T.b.D.L.L.L.B.V.B.G.c.G.L.L.L.P.L.L.L.L.L.L.C.D.L.A.lXlXlXlXlXlXlXlXlXlXlXlXlXlXlXlX",
"lXlXlXlXlXG 2.lXlXlXlXlXlXlXlXlXlXlXv.p.d.C @.Y.A.L.k.C.K.B.B.K.P.P.L.L.L.L.L.L.L.L.P.Z.+.C.L.%.lXlXlXlXlXlXlXlXlXlXlXlXlXlXlXlX",
"lXlXlXlXlXH q.lXlXlXlXlXlXlXlXlXlXlXv.^.~.A U ~.G.C.Y @.L.P.P.L.L.L.L.L.L.L.L.L.L.L.L.F.A.L.L.#.lXlXlXlXlXlXlXlXlXlXlXlXlXlXlXlX",
"lXlXlXlXlXlXj lXlXlXlXlXlXlXlXlXlXlXp.(./.s.^ ~.G.C.Y *.L.P.I.P.L.L.L.L.L.L.P.L.L.L.P.P.L.L.I.%.lXlXlXlXlXlXlXlXlXlXlXlXlXlXlXlX",
"lXlXlXlXlXlXlXlXlXlXlXlXlXlXlXlXlXlXlXY././.^.~.G.L.H.L.L.L.P.I.L.L.L.L.P.J.S.A.D.F.D.M.A.D.A.lXlXlXlXlXlXlXlXlXlXlXlXlXlXlXlXlX",
"lXlXlXlXlXlXlXlXlXlXlXlXlXlXlXlXlXlXlXl.T.E.Y.T.k.A.D.C.A.S.A.b.x.c.m.j.O.e.2X8X2XU.7X8X8X7X$XlXlXlXlXlXlXlXlXlXlXlXlXlXlXlXlXlX",
"lXlXlXlXlXlXlXlXlXlXlXlXlXlXlXlXlXlXlX9 1X0X0X1X$X7X8X8X8X7X#XeXgXfX<Xm b 6.rXdXrXgXhXhXhXhX=XlXlXlXlXlXlXlXlXlXlXlXlXlXlXlXlXlX",
"lXlXlXlXlXlXlXlXlXlXlXlXlXlXlXlXlXlXlXlX9XqXqXqX0XhXhXhXhXhXgXeXwXwXdX<Xr <XyX<XeXpXeXeX5X5XN lXlXlXlXlXlXlXlXlXlXlXlXlXlXlXlXlX",
"lXlXlXlXlXlXlXlXlXlXlXlXlXlXlXlXlXlXlXlX< 9 q q q @X@X6.6.5.5.5.n n m h v c k x L _ d : u ( : lXlXlXlXlXlXlXlXlXlXlXlX# lXlXlXlX",
"lXlXlXlXlXlXlXlXlXlXlXlXlX#     lXlXlXlX- & & - y g l * O & g / * % & v b r & & L ) ; O ; / : lXlXlXlXlXlXlXlXlXlXlX# XXw lXlXlX",
"lXlXlXlXlXlXlXlXlXlXlXlX. X     . lXlXlX- p - y y ) ) d i s / { g f f h v h g / ) { ) [ [ ] ; * lXlXlXlXlXlXlXlXlX  $ %XOXlXlXlX",
"lXlXlXlXlXlXlXlXlXlX            . lXlXlX- a t t y ( { { { { { { { { ) ( x ( { { [ { { { { Z f f : lXF H 3 lXlXlXlXlXX [.XXlXlXlX",
"lXlXlXlXlXlXlXlXlXlX  .   . lXlXlXlXlXlX= t t t y ( { { { { { { { [ [ ) { [ [ [ ) ) ) ) { { L S a.g.a.a.,.[.N lXlXlX  0 w lXlXlX",
"lXlXlXlXlXlXlXlXlXlX    . lXlXlXlXlXlXu i > > = = u d d d s s u i i i : : : : ; ; ; ; ; x { ( S S 3 lXlXlX0 +XwXoXlXX 8 lXlXlXlX",
"lXlXlXlXlXlXlXlXlXlXlX. lXlX+X+XlXlXlXf { ) z lXlXlXlXlXlXlXlXlXlXlXlXlXlXlXlXlXlXlXlXlX* d ) L : lXlXlXlXlXlXoXoX. # 0 lXlXlXlX",
"lXlXlXlXlXlXlXlXlXlXlXlXlXlX=X%XlXlXj k ) ] u lXlXlXlXlXlXlXlXlXlXlXlXlXlXlXlXlXlXlXlXlXlXlX; u lXlXlXlXlXlXlXlX.   8 XXlXlXlXlX",
"lXlXlXlXlXlXlXlXlXlXlXlXlXlX@Xq lXE m.F : u lXlXlXlXlXlXlXlXlXlXlXlXlXlXlXlXlXlXlXlXlXlXlXlXlXlXlXlXlXlXlXlXlXlXlX  8 0 lXlXlXlX",
"lXlXlXlXlXlXlXlXlXlXlXlXlXlX0.a.h.h.F lXlXlXlXlXlXlXlXlXlXlXlXlXlXlXlXlXlXlXlXlXlXlXlXlXlXlXlXlXlXlXlXlXlXlXlXlXlXlXlXlXlXlXlXlX",
"lXlXlXlXlXlXlXlXlXlXlXlXlXlX,.j.E lXlXlXlXlXlXlXlXlXlXlXlXlXlXlXlXlXlXlXlXlXlXlXlXlXlXlXlXlXlXlXlXlXlXlXlXlXlXlXlXlXlXlXlXlXlXlX",
"lXlXlXlXlXlXlXlXlXlXlXlXlXlXlXlXlXlXlXlXlXlXlXlXlXlXlXlXlXlXlXlXlXlXlXlXlXlXlXlXlXlXlXlXlXlXlXlXlXlXlXlXlXlXlXlXlXlXlXlXlXlXlXlX",
"lXlXlXlXlXlXlXlXlXlXlXlXlXlXlXlXlXlXlXlXlXlXlXlXlXlXlXlXlXlXlXlXlXlXlXlXlXlXlXlXlXlXlXlXlXlXlXlXlXlXlXlXlXlXlXlXlXlXlXlXlXlXlXlX"
};
