/* XPM */
static char *c3a384a32724495eeb74ed1f9bb694b3Bc2P75voLtcaM4wE[] = {
/* columns rows colors chars-per-pixel */
"64 64 255 2 ",
"   c None",
".  c #753729",
"X  c #3B761D",
"o  c #1C4B26",
"O  c #1B4827",
"+  c #1D5326",
"@  c #1E5529",
"#  c #245C25",
"$  c #235829",
"%  c #255B35",
"&  c #244C26",
"*  c #286626",
"=  c #2E742C",
"-  c #377929",
";  c #2F7733",
":  c #347C33",
">  c #2C682E",
",  c #764E35",
"<  c #5B641D",
"1  c #60385C",
"2  c #3A5366",
"3  c #435E56",
"4  c #705652",
"5  c #48665A",
"6  c #5B775C",
"7  c #546E59",
"8  c #766D4C",
"9  c #6D4E70",
"0  c #4A6661",
"q  c #58736D",
"w  c #6D726B",
"e  c #465078",
"r  c #991B05",
"t  c #A61D05",
"y  c #B31D05",
"u  c #9B2507",
"i  c #923312",
"p  c #A82707",
"a  c #B72807",
"s  c #AB370B",
"d  c #B8380A",
"f  c #B4391B",
"g  c #893733",
"h  c #C33609",
"j  c #CC3B0A",
"k  c #C63908",
"l  c #D73B09",
"z  c #C22D07",
"x  c #964815",
"c  c #905116",
"v  c #BA470C",
"b  c #B34E15",
"n  c #B46B19",
"m  c #8F4F2E",
"M  c #B2532B",
"N  c #906C2F",
"B  c #AE6B33",
"V  c #907B1B",
"C  c #C4420C",
"Z  c #CC4B0D",
"A  c #C8460B",
"S  c #D4440A",
"D  c #D34D0C",
"F  c #DB490B",
"G  c #D8560D",
"H  c #C95515",
"J  c #D75812",
"K  c #CC4D13",
"L  c #E3540B",
"P  c #E45C0D",
"I  c #EA560C",
"U  c #E2510E",
"Y  c #DD6313",
"T  c #DA6815",
"R  c #D8781A",
"E  c #CD6A17",
"W  c #E9660E",
"Q  c #F36D0E",
"!  c #F4740E",
"~  c #EB6C12",
"^  c #E46712",
"/  c #EC7313",
"(  c #E77817",
")  c #F37413",
"_  c #F37C15",
"`  c #F67715",
"'  c #EF6E11",
"]  c #C75A28",
"[  c #D87929",
"{  c #CF712E",
"}  c #ED7721",
"|  c #863B41",
" . c #8A4F4D",
".. c #B5564F",
"X. c #906E57",
"o. c #B67448",
"O. c #8B6673",
"+. c #AC6A6E",
"@. c #AD5373",
"#. c #D75A53",
"$. c #CA7C56",
"%. c #DA5E65",
"&. c #3D841F",
"*. c #3A8525",
"=. c #398638",
"-. c #50921C",
";. c #68A91B",
":. c #75B61A",
">. c #6EAF1C",
",. c #458A24",
"<. c #579924",
"1. c #45973C",
"2. c #549A34",
"3. c #49902C",
"4. c #58A630",
"5. c #7AB628",
"6. c #6CAC31",
"7. c #659B21",
"8. c #398B47",
"9. c #449848",
"0. c #489B54",
"q. c #4E9050",
"w. c #778459",
"e. c #56A547",
"r. c #4DA758",
"t. c #53A858",
"y. c #47A047",
"u. c #68B250",
"i. c #6C896B",
"p. c #57AC67",
"a. c #54B06F",
"s. c #519E63",
"d. c #78C258",
"f. c #72C76E",
"g. c #83BC1A",
"h. c #B3B12A",
"j. c #8DA12E",
"k. c #DA881B",
"l. c #D89714",
"z. c #E8891A",
"x. c #F38319",
"c. c #F68817",
"v. c #E8951B",
"b. c #F6981C",
"n. c #E1850F",
"m. c #F6A91C",
"M. c #F8B61D",
"N. c #E6A61E",
"B. c #DC9426",
"V. c #D08D2D",
"C. c #E69925",
"Z. c #E78C25",
"A. c #CDAE30",
"S. c #EAA826",
"D. c #F4A924",
"F. c #F4BB24",
"G. c #F5B727",
"H. c #E9AA36",
"J. c #EFB630",
"K. c #CEAF1D",
"L. c #8EC61C",
"P. c #A5D61D",
"I. c #96CE39",
"U. c #94C929",
"Y. c #A9DA26",
"T. c #AFD230",
"R. c #B9E538",
"E. c #B6E324",
"W. c #B4E61E",
"Q. c #F7C61D",
"!. c #F8D41C",
"~. c #F8E41C",
"^. c #D8C431",
"/. c #F5C32A",
"(. c #F5C827",
"). c #F8D825",
"_. c #F5C938",
"`. c #F5D539",
"'. c #ECCB2D",
"]. c #C6E92B",
"[. c #CAED37",
"{. c #F7E029",
"}. c #918F53",
"|. c #8C9170",
" X c #AA996E",
".X c #94A46E",
"XX c #9FAD55",
"oX c #C6AB4A",
"OX c #EAB44B",
"+X c #C88F66",
"@X c #93D456",
"#X c #A4DB4D",
"$X c #B6E547",
"%X c #B1E44F",
"&X c #8CD36A",
"*X c #A0E060",
"=X c #D6CF4F",
"-X c #F5D846",
";X c #F1D250",
":X c #D6C674",
">X c #F1D264",
",X c #F6E875",
"<X c #DFE657",
"1X c #3B4E90",
"2X c #2E54B0",
"3X c #386ABA",
"4X c #1F4DB0",
"5X c #474C98",
"6X c #53759B",
"7X c #4D6F91",
"8X c #726C9A",
"9X c #4658AC",
"0X c #4D70B1",
"qX c #6B6EA7",
"wX c #3B66C8",
"eX c #3B75C5",
"rX c #305CC2",
"tX c #4975D4",
"yX c #4775CA",
"uX c #826E91",
"iX c #B17294",
"pX c #B475B9",
"aX c #A5589B",
"sX c #A67AC8",
"dX c #6A9897",
"fX c #63C284",
"gX c #5987D8",
"hX c #4284C5",
"jX c #7191D2",
"kX c #5A8AE1",
"lX c #658DE3",
"zX c #648CEA",
"xX c #6C93E4",
"cX c #6C94EA",
"vX c #739BEB",
"bX c #7399E5",
"nX c #749DF2",
"mX c #7AA4E8",
"MX c #7CA4F4",
"NX c #73B3ED",
"BX c #7EA4D5",
"VX c #91908F",
"CX c #8696AC",
"ZX c #A29E97",
"AX c #8398CA",
"SX c #8AA3CA",
"DX c #85ABED",
"FX c #83ABF7",
"GX c #8BB2F7",
"HX c #95B9F3",
"JX c #90B4EE",
"KX c #90CBF5",
"LX c #A8C9FA",
"PX c #B1CFFB",
"IX c #BEE082",
/* pixels */
"                                                                                                                                ",
"                                                                                                                                ",
"                                                                d.y.                                                            ",
"                                                              @X;.*.y.                                                          ",
"                                                              I.4.*.= r.                                                        ",
"                                        a.                  &XU.:.*.* =.r.                                                      ",
"                                      a.p.r.                *XY.:.*.= = 9.p.              a.                                    ",
"                                      d.e.r.t.              %XY.>.*.* > 8.r.            r.y.a.                                  ",
"                                      &X6.y.y.p.          &X%XP.>.-.= * ; 8.          u.4.=.a.                                  ",
"                                        I.4.=.y.          f.R.Y.>.*.* # > =.p.        I.<.*.r.                                  ",
"                              fXfX      #X5.1.9.y.        &XR.E.;.&.* # # = 0.      @X5.,.: 9.                                  ",
"                                d.a.    #XY.;.y.y.r.      *XR.Y.;.*.* + $ > 9.    &XI.<.= ; 0.                                  ",
"                                @Xe.    *X[.L.<.9.0.t.    *XR.E.;.*.* + + * =.a.  #Xg.,.* = 9.          a.fX                    ",
"                      fX        *X@X1.    R.W.:.1.1.9.    #X].W.;.*.# o + # *.r.I.g.-.* * =         a.p.8.0.                    ",
"                        f.f.      #X5.8.p.#X[.P.<.1.9.9.  @XR.W.>.&.* + + # &.4.:.7.* # * =.      t.0.: ;                       ",
"                        #X@Xd.      R.7.1.d.R.].g.3.1.=.r.d.Y.W.>.&.* + # * *.&.7.X + # > 8.    e.4.- %                         ",
"                          $XT.u.u.  %XR.7.3.6.[.].;.X : 8.2.P.W.>.,.$ O @ * ,.-.X $ & # : s.t.6.6.> %                           ",
"                          %X[.T.6.4.u.$XY.<.*.5.].U.7.X ; =.g.P.;.X & o $ * X X * & $ > q.e.5.<.* $       a.a.                  ",
"                            $X[.].5.4.u.#XY.;.,.U.].g.,.= = :.P.;.X o o + # * # & O > : 4.6.= @ $     e.9.8.                    ",
"                                [.].g.2.2.I.Y.>.,.U.Y.>.,.= ;.:.-.# o O + # + O O # - 7.,.$ o > q.u.7.- ;                       ",
"                                  $X[.L.7.3.j.P.j.-.5.L.<.&.3.:.-.# & O o o o O # ,.,.* + + # =.,.> % >                         ",
"                                    %X[.U.>.3.<.g.:.-.6.:.,.&.>.X # o O o O o # > * $ & @ @ # @ $ %                             ",
"                                        #XI.L.7.-.-.<.*.<.-.- X * & & & & & & # > & $ + % % % %                                 ",
"                                            XX7.j.< V c n E n n x x i i x x c < . & & % %                                       ",
"                                            ] H H Y b.D.D.C.x./ Q ! ' G D G P W P Z b m                                         ",
"                                        B [ ) b.G.N.k.k.k.v.x.x.c.W ! c./ W D S L P F K B |.                                    ",
"                                    o.[ ) ` v.v.k.B.B.n k.D.b.c.c.D G ! ! ! Q P S d d G U o.|.                                  ",
"                                  $.} ` ~ ( R k.S././.F.k.k.b.b.c.W W c.Q Q G S D G h a j J {               eXkXtXrX4X          ",
"                                ] ( _ ^ T B.F.(.F.D./.G.G.D.[ ( c.c.c./ W G G Z A j l j h h F o.            wXvXtXwX3X          ",
"                              [ ^ J T ( D./././.( z././.G.D.c.T Z Y ^ Y J ^ W L Z k a j F F F v m             zXtX2X4X          ",
"                            ( ` ^ J T D.(.(.(.F.Z.OX`.J.G.b._ ^ Z v D ~ ' ~ W L S d p h l F S z b X.          gXtX4X            ",
"                          ] ^ J ( b.k.R /.'.(._.>X,X;XG.b.R J J / ~ G Z G ~ ~ P S j a j S k d L G M X.w       tXwX4X3X          ",
"                        M ^ ^ b.b.m.G.v.C.G.).,X,X>XH.C.v.z._ _ ( / W W G v J G F l l l a d A D Z J c 8       gXgXrXeX          ",
"                      X.T } Z.Z.b.m.F.;X-XC.J.OXOXH.J.G.F.m.b._ / ( Y W ^ G d s k l l a p k v s i m  .4 e 3X0XgXtXwXeX          ",
"                      o._ c./ J D.m.-X,X>XH.[ V.>X;X'.G.F.m.b.x.G G / ' W P P G C p u u d v v i 1 5X9X2X2X7X3X0X3XeXeX          ",
"                    O.V.x.x.I ( m.F.>XOXOX>X,X;XZ.H._./.D.b.b.b.^ I ! ! Q Q W D d d p u p A Z v . 4 9 0 e 1X3X3XyXhX            ",
"                    M x.x.c.c.D.F.D.C.>X,X,X,X,X;XB.C.F.G.D.D.D.n.Q ! ! ! ^ Z Z G k a a r u s K d A C c , .                     ",
"                    b x.c.b.D.D.v.Z.OX:X:X>X>X<X-X/.N.R C.G.G.D.b.! ! ( G G ~ W W S a y y a p s C A v s 8 ,                     ",
"                    R ^ x.b.z.v.oXZXSXjXjXjXCX X;X`.'.S.k.C.S.D.b.! G v G W / W P S a a a a a d s p u b N 8                     ",
"                  B x.Y Y k.C.oXCXxXgXlXNXmXbX0X X;X-XJ.D.S.k.R T Z G ~ ~ Y P P S h t t a a a d d u u v n 6 4                   ",
"                  B _ ( K Z.'.VXbXtXNXKXKXKXNXlX8XOX-XG.G.G.C.E v v T ! ~ P I L S k t y a p a a p k A s x 8 q                   ",
"                  o./ ^ ~ R S.CXjXyXNXKXKXKXbXbXqXOXJ.G.S.Z.k.D.m.~ H A J Q Q I F h a a y r u p k A S H x 4 q                   ",
"                  o.^ x.c._ z. XbXjXlXNXNXvXbXhXw H.J.k.k.S.D.m.c.x._ Y D J P P G h p p t r p z z A D v N m ,                   ",
"                  B x.c.x.b.z.B.ZXAXbXjXxXxXjXO.{ z.B.v.D.D.b.z.' _ x./ ' W D C A z a t r t a h j k C H N 8 .                   ",
"                  B c.c.b.M.M.z.Z.oX XuXVX|.o.( l.F.Q.F.G.v.( L L n.` ) ) ) Q C a p t r y y d j F p s H c 8 ,                   ",
"                  B Z.c.Q m.m.M.z.Z.J.;XJ.Z.Z.J.!.Q.Q.F.H.H.{ ] T _ ` ` ) ) W P A u r r y z h j l a A v x 8 8                   ",
"                  m ( ` L m.M.G.G.S.Z.OXOXOX_.'.!.Q.oXZXSXSXAXAXAXVXo.} ` Q P C d z y r t y j j S S D v g w.4                   ",
"                    ( ` Q m.M.G._.J.C.[ OX;X_.).^.ZXjXJXDXmXDXnXbXDXvXuX] F K Z S k y a i i f j A S A u 8 i.4                   ",
"                    b c.c.b.m.m.v.H.;X_.C.J.`.^.CXFXmXDXDXDXmXvXvXxXDXDXO.J I U l z g e 5X9X5X9 m j a v }.i.                    ",
"                    ..^ c.c.c./ N.`.;X-X'.l./..XlXvXDXJXHXHXHXJXxXcXxXHXtX] U U l 1 2XwXtXtXrXwX9Xg A b i.i.                    ",
"                    X.{ T ~ ^ c.Q.).`.`.).).N.VXMXxXJXJXPXPXPXLXJXlXvXbXbX@.I I K 5XtXtXNXKXgX2XyX9 n N i.7X                    ",
"                    O.{ Z J c.m.M.!.S.m.~.~.'.CXGXxXDXLXPXLXLXLXHXxXxXcXMXO.U I f 4XtXgXKXNXNX2XwXe n }.dX                      ",
"                      M ^ G z.m.M.!.b.x.~.~.^.BXMXmXDXLXLXJXbXHXGXcXxXlXFX8XU U M 1XrXtXtXnXkX2X2X .c }.8                       ",
"                      M x.c./ b.M.Q.m.m.!.~.^.AXGXvXbXJXbXjXxXxXcXnXxXzXnXqX] F l | 5XwXtXtXrX3X9 M c m m                       ",
"                        T c.c.n.v.M.M.!.!.!.A.AXGXvXDXJXbXlXlXlXlXnXlXzXFXqXK S j j f g 9 1 | M J V }.m                         ",
"                        M } _ x./ n.m.M.Q.m.V.jXmXvXbXDXbXlXgXbXcXcXxXzXnX8XK U l j j z h l l F { }.w 4                         ",
"                          #.#.#...T R V.l.S.V.jXMXxXcXMXGXMXnXFXFXnXcXcXnX8XK ~ Y A x b ..#.....j.}.}.X.                        ",
"                      pXpXaX@.%...X.j.V h.'.=XCXBXlXxXMXGXGXFXMXFXcXzXxXnXuXv.n.k.k.l.B +.+.iX+X}.X.}.}.VX                      ",
"                        pXaXaX@.o.j.A.K.h.^.K..XZXnXzXcXMXMXMXmXnXlXlXzXbXVXl.l.n.K.$.%...X.+.+X XX.XX}.w                       ",
"                        sXpXpXiX8 8 h.T.h.K.A..XBXcXmXcXcXcXcXxXcXxXlXzXSXh.E l.n.K.$.$.X.O.O.iX XoX X                          ",
"                                      =X<X=XoX.X6X7X7X7X6X6X6X6X6XdX6X0X0X|.=X=X=XP.+X XZXiX                                    ",
"                                            q 6 0 i.i.i.6 5 0 3 7 6 5 0 0 0 .X,X,X                                              ",
"                                          5 6 q 5 5 5 5 0 0 i.i.w 6 6 7 3 5 5                                                   ",
"                                        5 q 5 6 7 5 5 3 0 6 i..X.Xi.q.3 3 5 5 3                                                 "
};
