/* XPM */
static char *result[] = {
/* columns rows colors chars-per-pixel */
"64 64 47 1 ",
"  c #A24EAE",
". c #A450AF",
"X c #A552B2",
"o c #A856B4",
"O c #AB59B6",
"+ c #AD5CB9",
"@ c #B05FBB",
"# c #B262BE",
"$ c #B767C2",
"% c #BA6BC5",
"& c #BE70C9",
"* c #C174CC",
"= c #C579CF",
"- c #C67BD1",
"; c #C97ED2",
": c #BCB8EC",
"> c #CE84D7",
", c #CF85D9",
"< c #D086DA",
"1 c #D38BDD",
"2 c #D78FE0",
"3 c #D790E0",
"4 c #DA93E3",
"5 c #DA9AE6",
"6 c #DA9EE9",
"7 c #DBA3EC",
"8 c #D5ACEE",
"9 c #DAAAEE",
"0 c #CCB8EF",
"q c #DBADF1",
"w c #CBB7F0",
"e c #C6BEF2",
"r c #CBBCF2",
"t c #D5B3F1",
"y c #DBB4F4",
"u c #D4BCF5",
"i c #DBBBF6",
"p c #D7BFF9",
"a c #DCBDF9",
"s c #C7C2F2",
"d c #CDC3F4",
"f c #D4C4F6",
"g c #DAC1F7",
"h c #D7C8F7",
"j c #D3C4F9",
"k c #DCC4FD",
"l c None",
/* pixels */
"llllllllllllllllllllllllllllllllllllllllllllllllllllllllllllllll",
"llllllllllllllllllllllllllllllllllllllllllllllllllllllllllllllll",
"llllllllllllllllllllllllllllllllllllllllllllllllllllllllllllllll",
"llllllllllllllllllllllllllllllllllllllllllllllllllllllllllllllll",
"llllllllllllllllllllllllllllllljuaiyyyaajlllllllllllllllllllllll",
"llllllllllllllllllllllllllllllpq55445455qajlllllllllllllllllllll",
"llllllllllllllllllllllllllllep644444444445ijllllllllllllllllllll",
"lllllllllllllllllllllllllllji4<;,4442444445illllllllllllllllllll",
"llllllllllllllllllllllllllea4*o.X&4444444445plllllllllllllllllll",
"llllllllllllllllllllllllllt4*. . +24444445649pllllllllllllllllll",
"lllllllllllllllllllllllllp6-X.   +3444447kky5yglllllllllllllllll",
"llllllllllllllllllllllllr9<O  .  &444444ykkky5alllllllllllllllll",
"llllllllllllllllllllllllq4&  .  o<444444qkkkk67kllllllllllllllll",
"lllllllllllllllllllllllu52$ ... %4444444qkkkkq4yllllllllllllllll",
"lllllllllllllllllllllle944+    @154444445kkkkk47klllllllllllllll",
"llllllllllllllllllllllt444&  .$<444244444qkkkk74illlllllllllllll",
"lllllllllllllllllllllk74442*$=244444444445akkkq49lllllllllllllll",
"llllllllllllllllllllli44;$-4444444444444447kkka46kllllllllllllll",
"lllllllllllllllllllll94>X $4424444444444444ykka55gllllllllllllll",
"lllllllllllllllllllll74* X-4<#*2444444444446kkk65gllllllllllllll",
"lllllllllllllllllllll74>$=24% o1444444444444akk75gllllllllllllll",
"lllllllllllllllllllll7442444$ o<444444444444qkk96kllllllllllllll",
"lllllllllllllllllllll9444444$ O1444444444444ykk79kllllllllllllll",
"llllllllllllllllllllll544444-+=4444444444445kkk7qlllllllllllllll",
"lllllllllllllllllllllly44444424444444444444qkka5illlllllllllllll",
"lllllllllllllllllllllll84444444444444444444ikk77klllllllllllllll",
"llllllllllllllllllllllw74444444444444444445yi74yllllllllllllllll",
"llllllllllllllllllllll944454444444444444444454qlllllllllllllllll",
"lllllllllllllllllllllly54456754444444444444459llllllllllllllllll",
"lllllllllllllllllllllllt44445996544424444447ylllllllllllllllllll",
"lllllllllllllllllllllllly6444457qq764444467qllllllllllllllllllll",
"llllllllllllllllllllllllly954442446654444549llllllllllllllllllll",
"lllllllllllllllllllllllll77iq75444444444425yllllllllllllllllllll",
"llllllllllllllllllllllllf67y67yyq776455579ylllllllllllllllllllll",
"llllllllllllllllllllllllt59y4495qkkiqyiaklllllllllllllllllllllll",
"llllllllllllllllllllllll948q4694qll947llllllllllllllllllllllllll",
"lllllllllllllllllllllllr75u84774ilt54yllllllllllllllllllllllllll",
"lllllllllllllllllllllllt47h74775ul946gllllllllllllllllllllllllll",
"llllllllllllllllllllll074qf74957lu54qlllllllllllllllllllllllllll",
"lllllllllllllllllllll:745f054947s845ylllllllllllllllllllllllllll",
"lllllllllllllllllllll8549d844948f946plllllllllllllllllllllllllll",
"llllllllllllllllllllt644id74594qf647llllllllllllllllllllllllllll",
"lllllllllllllllllllt6447ft43794yt54tllllllllllllllllllllllllllll",
"llllllllllllllllllp6444yd744y74yp55tllllllllllllllllllllllllllll",
"lllllllllllllllllg74447d9446t74iu56lllllllllllllllllllllllllllll",
"lllllllllllllllll94445ur644yf65yu67lllllllllllllllllllllllllllll",
"llllllllllllllllt4435ys9447gg65il77lllllllllllllllllllllllllllll",
"lllllllllllllllt5445qft444yla55al95pllllllllllllllllllllllllllll",
"lllllllllllllll9445qlu7427lla56gly5yllllllllllllllllllllllllllll",
"llllllllllllllp546yll8445ylla56llp59llllllllllllllllllllllllllll",
"llllllllllllllgttgllt544qlllp56lll76llllllllllllllllllllllllllll",
"lllllllllllllllllllr9446plllu57lll95ylllllllllllllllllllllllllll",
"lllllllllllllllllllt545yllllu57lllt49lllllllllllllllllllllllllll",
"llllllllllllllllllu7449lllllp67lllt57lllllllllllllllllllllllllll",
"llllllllllllllllllp647klllllg67lll846gllllllllllllllllllllllllll",
"lllllllllllllllllllyqglllllll67lll946gllllllllllllllllllllllllll",
"lllllllllllllllllllllllllllll79llu546lllllllllllllllllllllllllll",
"lllllllllllllllllllllllllllllpall8447lllllllllllllllllllllllllll",
"lllllllllllllllllllllllllllllllll944ylllllllllllllllllllllllllll",
"llllllllllllllllllllllllllllllllly79llllllllllllllllllllllllllll",
"llllllllllllllllllllllllllllllllllllllllllllllllllllllllllllllll",
"llllllllllllllllllllllllllllllllllllllllllllllllllllllllllllllll",
"llllllllllllllllllllllllllllllllllllllllllllllllllllllllllllllll",
"llllllllllllllllllllllllllllllllllllllllllllllllllllllllllllllll"
};
