/* XPM */
static char *_f78219ecf944876b7a7600995da1d3bdqNoQrLTlnPl93pk[] = {
/* columns rows colors chars-per-pixel */
"64 64 174 2 ",
"   c None",
".  c #000000",
"X  c #090403",
"o  c #090A08",
"O  c #0D1411",
"+  c #111A15",
"@  c #131D19",
"#  c #1E1E17",
"$  c #17241E",
"%  c #19251F",
"&  c #192621",
"*  c #1C2B25",
"=  c #1E2F29",
"-  c #1F3129",
";  c #22342B",
":  c #26382F",
">  c #38392C",
",  c #263C33",
"<  c #293E34",
"1  c #481306",
"2  c #581706",
"3  c #72331D",
"4  c #6F3F29",
"5  c #2A4136",
"6  c #2C453A",
"7  c #2E4A3D",
"8  c #31493D",
"9  c #37463F",
"0  c #5A412F",
"q  c #424032",
"w  c #553E49",
"e  c #2E4D40",
"r  c #324E43",
"t  c #345244",
"y  c #385547",
"u  c #345648",
"i  c #3A5649",
"p  c #36594A",
"a  c #3B5C4D",
"s  c #3C6352",
"d  c #3F6957",
"f  c #494646",
"g  c #59484F",
"h  c #44544C",
"j  c #445E51",
"k  c #4C5752",
"l  c #426454",
"z  c #436857",
"x  c #436D5A",
"c  c #4A6D5B",
"v  c #486756",
"b  c #576A56",
"n  c #46745F",
"m  c #4B715F",
"M  c #58705C",
"N  c #766249",
"B  c #7D7A5E",
"V  c #5B6B64",
"C  c #477762",
"Z  c #4C7562",
"A  c #4C7B66",
"S  c #4C7F69",
"D  c #537463",
"F  c #517A66",
"G  c #537D69",
"H  c #5C7B6D",
"J  c #5A7766",
"K  c #656967",
"L  c #677866",
"P  c #7F7D60",
"I  c #6C7B74",
"U  c #727B77",
"Y  c #7E7E7E",
"T  c #86290F",
"R  c #9F290A",
"E  c #883217",
"W  c #B22C0A",
"Q  c #BE320D",
"!  c #CF330A",
"~  c #D6350B",
"^  c #DD370B",
"/  c #E3390C",
"(  c #954426",
")  c #4D826B",
"_  c #55826D",
"`  c #5A836D",
"'  c #598670",
"]  c #548E75",
"[  c #5B8A74",
"{  c #5E8F78",
"}  c #559076",
"|  c #5B937A",
" . c #5E987E",
".. c #589178",
"X. c #72856B",
"o. c #618C77",
"O. c #668978",
"+. c #718B7E",
"@. c #79857F",
"#. c #62947C",
"$. c #64987F",
"%. c #848769",
"&. c #9E8F6C",
"*. c #8D9171",
"=. c #9E9A76",
"-. c #B5936B",
";. c #AD9F79",
":. c #B99870",
">. c #99A07D",
",. c #7E8381",
"<. c #778A81",
"1. c #659C82",
"2. c #699D84",
"3. c #679780",
"4. c #7E9B8D",
"5. c #69A186",
"6. c #6CA58A",
"7. c #6FA98D",
"8. c #70AA8E",
"9. c #70AB8F",
"0. c #71AC90",
"q. c #71AD91",
"w. c #72AD91",
"e. c #72AE92",
"r. c #72AE91",
"t. c #71AC90",
"y. c #73B093",
"u. c #838383",
"i. c #898989",
"p. c #87938D",
"a. c #8C9490",
"s. c #939292",
"d. c #9A9A9A",
"f. c #979897",
"g. c #8DA298",
"h. c #9EA09F",
"j. c #A5AA85",
"k. c #ABA983",
"l. c #B1AE86",
"z. c #BBB68C",
"x. c #B2B58C",
"c. c #BCBE93",
"v. c #9CA9A3",
"b. c #ABABAB",
"n. c #A5A7A5",
"m. c #A4B6AD",
"M. c #B5B5B5",
"N. c #B5BCB9",
"B. c #BCBCBC",
"V. c #C1AE83",
"C. c #C3B186",
"Z. c #C0BD91",
"A. c #C5C295",
"S. c #C9C497",
"D. c #D0CA9B",
"F. c #DBD5A4",
"G. c #E0DCA9",
"H. c #ECE5B0",
"J. c #F5EEB7",
"K. c #FCF6BD",
"L. c #FEF8BE",
"P. c #FEF8BE",
"I. c #BEC2C0",
"U. c #C4C4C4",
"Y. c #CCCBCC",
"T. c #D6D5D5",
"R. c #DADADA",
"E. c #FFFDC2",
"W. c #FFFBC1",
"Q. c #E5E4E5",
"!. c gray93",
"~. c #E8E7E7",
"^. c #FDFDFD",
"/. c #F8F7F8",
/* pixels */
"                                                                                                                                ",
"                                                                                                                                ",
"                                                  * r j                                                                         ",
"                                                      < a < : = &                                                               ",
"                                                      O & * t y &                                                               ",
"                                                              6 a = = = ;                                                       ",
"                                                              @ * : i *                                                         ",
"                                                                    y c ;                                                       ",
"                                                                      7 t *                                                     ",
"                                                                      = = l ,                                                   ",
"                                                                          y ' ,                                                 ",
"                                                                            m [ *                                               ",
"                                                                            = o.G                                               ",
"                          ,                                                   t 6.v                                             ",
"                    : 6 r r y 6 < u -                                           ' 6.6                                           ",
"                  & < <     < 6 , 5 c c 6 , r *                                 v y.G                                           ",
"                    *       & *       r r , l Z j                               8 6.8.l                                         ",
"                                      =       a G [ Z 8                         & #.w.$.:                                       ",
"                                                  8 m [ F r               l _ o.l F 8.6.l _ [ c                                 ",
"                                                        c { F :     < Z $.7.w.w.6.' G F G w.w.9.2.[ Z                           ",
"                                                          < F G ; l $.8.w.w.w.9.w.w.t = ; F 9.9.w.w.0.| y                       ",
"                                                              6 _ 7.w.w.9.w.9.w.w.o.O . . % 5.w.w.w.w.w.#.8                     ",
"                                                            + F w.w.8.w.w.9.9.w.$.= . . . * 6.9.0.0.0.0.w.#.:                   ",
"                                                            l 0.w.w.8.w.w.9.w.$.= . . . . l w.w.0.0.0.0.0.w.G                   ",
"                                                          ; 2.0.8.w.w.w.w.q.[ * . . . . , 6.w.9.w.w.q.w.7.q.7.z                 ",
"                                                          t 8.8.6.6.1._ v 6 O . . . X 2 4 [ w.w.7.w.7.w.w.q.w.1.t               ",
"                                                . . . . . $ < ; * * + X . . . . X 1 R ~ ~ 3 H w.w.w.q.7.w.q.w.5.S *             ",
"                                                  . . . . . . . . . . . o # q P N ! / / / ~ 3 ' w.7.w.w.7.q.w.6.] t             ",
"                                                        . o & * * > B =.z.F.J.E.&.W / / / / ! 0 6.w.w.q.9.w.w.7.| S *           ",
"                                                            F 0.F k.E.E.E.P.P.E.S.E ^ / / / / T _ w.9.q.w.9.9.w. .} p           ",
"                                                            ; { D z.E.P.P.P.P.P.W.;.( Q ! ! Q 3 v w.w.q.9.w.7.q.5.} A $         ",
"                                                              y Z l.E.P.P.P.P.P.E.E.F.C.:.-.V.A.M 9.7.7.6. .7.q.5.} ] 6         ",
"                                                                m *.P.P.P.P.P.P.P.P.P.E.E.W.E.A.c G +.+.v ' 0.0.7...} p         ",
"                                                                s b D.P.P.P.P.P.P.P.P.P.P.P.P.%.[ c Y.~.I 2.0.0.7...] x         ",
"                                                                t o.b F.E.P.P.P.P.P.P.P.P.P.k.M G K Q.^.v.' w.0.7.} } C O       ",
"                                                                $ #.1.L A.J.P.P.P.W.E.W.H.j.J G a.R.b./.Y.D 0.0.6.] ] ) *       ",
"                                                                  G y.2.` X.j.c.A.c.x.>.L c H ,./.^.B.B.T.j 7.0.1.] ] ] ,       ",
"                                                              8 ; F 3.#.6.5.1.#.o.` H H V N.~.d.R.^.!.u.i.k 6.7.) s ) } p       ",
"                                                            G 2.a 3.[ f g L m.4.<.U b.!.b.M.^.R.i.Y.M.U.n.k #.Z p C ] } S *     ",
"                                                        r 3.0.F y 0.0.o.w f U O.3.@.s.Y.Q.Y b.Y.s.M.^.^.Y.r v Z ] } } ) u       ",
"                                                      ; | w.o.k ' e.0.{ v 3.i 3.e.F f.u.U.B.n./.Q.d.I.v.+.G 5.1.] ) d u @       ",
"                                                      l w.9.M h #.[ G G 6.8.a 2.e.{ ,.a.b.N.U g.4.o.#.5.7.w.1.S d a d s         ",
"                                                      l 2.7.2.| #.3.2.7.2.[ t #.8.6.[ 3.2.2.6.6.5.1.#.[ _ F n C C ] } u         ",
"                                                          v m [ [ ' ' _ G #.2._ ' ' ' ' G G G G F F [ #.$.6.7. .} } ) -         ",
"                                                            c 1.2.2.7.7.0.q.q.q.8.6.2.2.2.2.6.7.w.w.w.w.q.q.5.} ] } n           ",
"                                                          , 2.w.e.e.q.9.0.0.0.0.0.0.0.w.w.0.0.0.w.9.w.w.7.7. .} ] ] 5           ",
"                                                          8 7.0.9.e.9.e.0.0.0.0.0.0.0.0.0.0.0.0.7.q.9.w.7. .} } } d             ",
"                                                          r 8.8.w.9.q.9.0.0.0.0.0.0.0.0.0.0.0.0.w.q.w.7. .] } } ) -             ",
"                                                          6 6.w.w.8.8.w.w.9.9.w.q.q.q.q.q.q.q.q.w.7.7. .] ] ] ] u               ",
"                                                          * $.w.w.w.w.w.9.w.w.9.q.7.q.q.q.7.q.7.7.1.} ] ] ] ] s                 ",
"                                                            y 6.w.7.w.8.w.w.w.w.q.q.7.q.q.7.5.1.} ] } ] } ] p                   ",
"                                                              v 5.w.w.8.w.9.9.w.q.7.q.6.5. .} ] } ] } } ) e                     ",
"                                                                t | 7.8.9.w.w.9.7.7.1.] ] ] ] ] ] ] ) s -                       ",
"                                                              * C p 6 c G ] ] ..} ] ) u S } } d u p ;                           ",
"                                                              8 | p           5 7 7 e $ _ 1.} t                                 ",
"                                                              a 2.,                     n 7. .u                                 ",
"                                                              s 6.5                     5 5.6.e                                 ",
"                                                              8 6.a                       F w.z                                 ",
"                                                                S n                       6 $.5.6                               ",
"                                                                = d ,                       y 6._                               ",
"                                                                  ; 7                         t _ p                             ",
"                                                                                                  , O                           ",
"                                                                                                                                ",
"                                                                                                                                "
};
