/* XPM */
static char *result[] = {
/* columns rows colors chars-per-pixel */
"64 64 249 2 ",
"   c #000000",
".  c #04060A",
"X  c #161C27",
"o  c #1D2430",
"O  c #20293D",
"+  c #672F2A",
"@  c #2A4C2A",
"#  c #264729",
"$  c #2D532C",
"%  c #2F592E",
"&  c #335B2C",
"*  c #32542C",
"=  c #335B33",
"-  c #305231",
";  c #3B662D",
":  c #3A6832",
">  c #3F7136",
",  c #7A5436",
"<  c #6E4833",
"1  c #4B762D",
"2  c #427334",
"3  c #487938",
"4  c #4A7433",
"5  c #5F5A29",
"6  c #273147",
"7  c #2D3B59",
"8  c #6F3D55",
"9  c #334355",
"0  c #304050",
"q  c #3B4D76",
"w  c #3A6642",
"e  c #495D57",
"r  c #545854",
"t  c #72524C",
"y  c #4B625A",
"u  c #536A5B",
"i  c #517A4E",
"p  c #756F52",
"a  c #4F4E76",
"s  c #6B5273",
"d  c #4E6463",
"f  c #5E7263",
"g  c #576B67",
"h  c #637764",
"j  c #727972",
"k  c #8C2A16",
"l  c #982C17",
"z  c #953319",
"x  c #9B351A",
"c  c #89381E",
"v  c #A52E19",
"b  c #AC351C",
"n  c #AC3B1E",
"m  c #A4371B",
"M  c #B23C1E",
"N  c #B1331C",
"B  c #973729",
"V  c #95421E",
"C  c #A7411E",
"Z  c #B3401E",
"A  c #864826",
"S  c #945129",
"D  c #AB4821",
"F  c #B44320",
"G  c #BD4522",
"H  c #B44A22",
"J  c #BB4A23",
"K  c #AB582B",
"L  c #BC5326",
"P  c #B85728",
"I  c #B75938",
"U  c #AA5632",
"Y  c #916B32",
"T  c #B26932",
"R  c #C44C24",
"E  c #C74824",
"W  c #C45326",
"Q  c #CA5126",
"!  c #C45C2A",
"~  c #CC5B29",
"^  c #C85927",
"/  c #D35D2A",
"(  c #D45928",
")  c #CB5E34",
"_  c #CB632C",
"`  c #CB682E",
"'  c #D4632C",
"]  c #D46B2E",
"[  c #DA682D",
"{  c #D56D31",
"}  c #CD7937",
"|  c #DB7431",
" . c #DC7A34",
".. c #D57734",
"X. c #CC6B32",
"o. c #E37531",
"O. c #E37C34",
"+. c #E87B34",
"@. c #E16E2F",
"#. c #863E44",
"$. c #935147",
"%. c #8F704E",
"&. c #B87646",
"*. c #AC6E4C",
"=. c #B25971",
"-. c #8B6A6D",
";. c #AC7268",
":. c #AC554A",
">. c #C9714A",
",. c #C6796D",
"<. c #D96858",
"1. c #4D8436",
"2. c #578A36",
"3. c #5B9038",
"4. c #52822F",
"5. c #689839",
"6. c #6C923A",
"7. c #79A83C",
"8. c #75A93D",
"9. c #4D8448",
"0. c #528A48",
"q. c #599349",
"w. c #5A9754",
"e. c #538D53",
"r. c #669C46",
"t. c #649D57",
"y. c #7C825B",
"u. c #5FA05D",
"i. c #75A847",
"p. c #67A358",
"a. c #72A951",
"s. c #5E9D64",
"d. c #73906E",
"f. c #66A768",
"g. c #6CAF73",
"h. c #5EA169",
"j. c #85B43E",
"k. c #82AD3D",
"l. c #A8893A",
"z. c #CB8638",
"x. c #D98738",
"c. c #DA933C",
"v. c #D7953C",
"b. c #E38336",
"n. c #E48A39",
"m. c #E98D3A",
"M. c #E88538",
"N. c #E6933D",
"B. c #EA933C",
"V. c #E69C3E",
"C. c #CDA03D",
"Z. c #EAA23F",
"A. c #948C51",
"S. c #BB8B58",
"D. c #89B745",
"F. c #93BC46",
"G. c #85B655",
"H. c #82AC45",
"J. c #B5AB4B",
"K. c #8C8E6C",
"L. c #AE9374",
"P. c #8DAE6E",
"I. c #B2AA6F",
"U. c #D89A43",
"Y. c #D18B45",
"T. c #E69A41",
"R. c #DAA644",
"E. c #CFAF53",
"W. c #EBAC44",
"Q. c #E7A744",
"!. c #ECB245",
"~. c #EDBC4A",
"^. c #E8B549",
"/. c #E7B756",
"(. c #EBB24B",
"). c #D4B563",
"_. c #E4B664",
"`. c #9BC245",
"'. c #9DC856",
"]. c #B4D74C",
"[. c #ABD459",
"{. c #B8DB54",
"}. c #A8CE4D",
"|. c #BCE258",
" X c #91C96D",
".X c #AAD86A",
"XX c #B9E366",
"oX c #DAC956",
"OX c #D4CE55",
"+X c #EDC34E",
"@X c #ECCB4D",
"#X c #F2C44A",
"$X c #ECC755",
"%X c #EFD157",
"&X c #F3DA53",
"*X c #F1D051",
"=X c #C8E556",
"-X c #D2EC5A",
";X c #F4E351",
":X c #E8C667",
">X c #F1D867",
",X c #EED571",
"<X c #C5E565",
"1X c #F0E76F",
"2X c #D8C47A",
"3X c #344997",
"4X c #395BB8",
"5X c #3052AC",
"6X c #3C60BF",
"7X c #4B5692",
"8X c #746C90",
"9X c #425DAC",
"0X c #4666B7",
"qX c #5374B2",
"wX c #6D77B0",
"eX c #4C669A",
"rX c #4767C2",
"tX c #5678CB",
"yX c #4C73C8",
"uX c #A76F8A",
"iX c #AB71AF",
"pX c #95659A",
"aX c #6C8F87",
"sX c #76BD85",
"dX c #798DBC",
"fX c #5A82CC",
"gX c #678BD7",
"hX c #7998DA",
"jX c #7390CF",
"kX c #79A1DD",
"lX c #7B9BE6",
"zX c #77A7E5",
"xX c #7CC39C",
"cX c #8F8C94",
"vX c #9DA990",
"bX c #A5A588",
"nX c #8798BA",
"mX c #8C94A9",
"MX c #9E9DA4",
"NX c #F3E787",
"BX c #F4EA91",
"VX c #D9CD82",
"CX c #829ACB",
"ZX c #8CA5D1",
"AX c #8BAAEC",
"SX c #89B3ED",
"DX c #97CAEF",
"FX c #A2D5F6",
"GX c None",
/* pixels */
"GXGXGXGXGXGXGXGXGXGXGXGXGXGXGXGXGXGXGXGXGXGXGXGXGXGXGXGXGXGXGXGXGXGXGXGXGXGXGXGXGXGXGXGXGXGXGXGXGXGXGXGXGXGXGXGXGXGXGXGXGXGXGXGX",
"GXGXGXGXGXGXGXGXGXGXGXGXGXGXGXGXGXGXGXGXGXGXGXGXGXGXGXGXGXGXGXGXGXg.GXGXGXGXGXGXGXGXGXGXGXGXGXGXGXGXGXGXGXGXGXGXGXGXGXGXGXGXGXGX",
"GXGXGXGXGXGXGXGXGXGXGXGXGXGXGXGXGXGXGXGXGXGXGXGXGXGXGXGXGXGXGXGX'.q.g.GXGXGXGXGXGXGXGXGXGXGXGXGXGXGXGXGXGXGXGXGXGXGXGXGXGXGXGXGX",
"GXGXGXGXGXGXGXGXGXGXGXGXGXGXGXGXGXGXGXGXGXGXGXGXGXGXGXGXGXGXGX Xi.1.q.GXGXGXGXGXGXGXGXGXGXGXGXGXGXGXGXGXGXGXGXGXGXGXGXGXGXGXGXGX",
"GXGXGXGXGXGXGXGXGXGXGXGXGXGXGXGXGXGXGXGXGXGXGXGXGXGXGXGXGXGXGX'.8.1.> e.GXGXGXGXGXGXGXGXGXGXGXGXGXGXGXGXGXGXGXGXGXGXGXGXGXGXGXGX",
"GXGXGXGXGXGXGXGXGXGXGXGXGXGXGXGXGXGXGXGXg.GXGXGXGXGXGXGXGXGX X[.`.3.: 1.u.GXGXGXGXGXGXGXGXGXGXGXGXGXGXGXGXGXGXGXGXGXGXGXGXGXGXGX",
"GXGXGXGXGXGXGXGXGXGXGXGXGXGXGXGXGXGXGXf.f.f.GXGXGXGXGXGXGXGX.X{.j.1.: > e.p.GXGXGXGXGXGXGXg.g.GXGXGXGXGXGXGXGXGXGXGXGXGXGXGXGXGX",
"GXGXGXGXGXGXGXGXGXGXGXGXGXGXGXGXGXGXGXg.a.u.u.GXGXGXGXGXGXGXXX{.8.3.: : 9.u.GXGXGXGXGXGXp.u.f.GXGXGXGXGXGXGXGXGXGXGXGXGXGXGXGXGX",
"GXGXGXGXGXGXGXGXGXGXGXGXGXGXGXGXGXGXGXG.G.u.w.f.GXGXGXGXGXGXXX].8.3.> & > e.GXGXGXGXGXGXi.1.s.GXGXGXGXGXGXGXGXGXGXGXGXGXGXGXGXGX",
"GXGXGXGXGXGXGXGXGXGXGXGXGXGXGXGXGXGXGXGX'.i.q.q.f.GXGXGXGX X|.].j.3.> & : > w.GXGXGXGX'.i.1.e.GXGXGXGXGXGXGXGXGXGXGXGXGXGXGXGXGX",
"GXGXGXGXGXGXGXGXGXGXGXGXGXGXGXsXsXGXGXGX[.`.q.w.u.GXGXGXGX X|.|.8.2.; & & : w.GXGXGX XF.3.2 0.GXGXGXGXGXGXGXGXGXGXGXGXGXGXGXGXGX",
"GXGXGXGXGXGXGXGXGXGXGXGXGXGXGXGX Xg.GXGXXX}.8.q.w.u.GXGXGX.X=X|.8.1.; % % : 0.GXGXGX'.i.2 2 e.GXGXGXGXGXGXxXGXGXGXGXGXGXGXGXGXGX",
"GXGXGXGXGXGXGXGXGXGXGXGXGXGXGXGX.Xp.GXGXGX=X`.5.q.w.u.GXGX.X<X|.8.4.; % @ & 3 u.GX'.`.2.; 2 9.GXGXGXGXGXg.sXGXGXGXGXGXGXGXGXGXGX",
"GXGXGXGXGXGXGXGXGXGXGXsXGXGXGXGX.X'.r.GXGX=X|.j.3.q.w.GXGX.X-X|.j.2.; @ & & 1.w.G.`.5.; ; > 9.GXGXGXGXf.e.e.GXGXGXGXGXGXGXGXGXGX",
"GXGXGXGXGXGXGXGXGXGXGXGXsX XGXGXGX.XD.q.f.[.-X].5.q.w.e.GX'.].=Xj.4.; @ @ & 1 3.F.7.4 & : > GXGXGXt.t.0.: GXGXGXGXGXGXGXGXGXGXGX",
"GXGXGXGXGXGXGXGXGXGXGXGX.X[.P.GXGXGX=X7.0.f.{.-X`.5.0.9.h.G.].=Xj.2.; @ $ & 2 3.8.4 $ * : i GXGXa.i.3 = w GXGXGXGXGXGXGXGXGXGXGX",
"GXGXGXGXGXGXGXGXGXGXGXGXGX=X{.G.t.GX<X{.7.2.i.=X=Xk.4.1 0.t.}.|.j.4.& # $ & 4.3.1 & @ & 2 w.t.G.H.3 = w GXGXGXGXGXGXGXGXGXGXGXGX",
"GXGXGXGXGXGXGXGXGXGXGXGXGXXX-X{.H.r.GX<X{.5.2.H.-X].5.1 2 1.D.].j.1 * # $ & 1 1 1 # - = i t.G.6.; - = GXGXh.f.GXGXGXGXGXGXGXGXGX",
"GXGXGXGXGXGXGXGXGXGXGXGXGXGXXX-X=XD.r.p.[.].7.2.j.-X`.3.2 > 7.}.7.1 $ # @ & ; ; # # & 3 r.i.3 & - GXGXa.e.e.s.GXGXGXGXGXGXGXGXGX",
"GXGXGXGXGXGXGXGXGXGXGXGXGXGXGXGX-X=XF.5.r.'.].H.2.j.].k.2.> 5.j.5.; @ # @ % $ # # * 4 6.2.2 $ = 0.i.r.3 > 9.GXGXGXGXGXGXGXGXGXGX",
"GXGXGXGXGXGXGXGXGXGXGXGXGXGXGXGXGX<X=XF.6.3.H.}.j.5.k.`.5.4.3.j.3.& @ # @ @ # # * 3 3.2 $ @ % > 3 4 = = GXGXGXGXGXGXGXGXGXGXGXGX",
"GXGXGXGXGXGXGXGXGXGXGXGXGXGXGXGXGXGXGX=X}.k.2.6.j.j.5.7.j.3.3 7.4.& @ # @ @ # $ ; ; * @ @ % % % - - GXGXGXGXGXGXGXGXGXGXGXGXGXGX",
"GXGXGXGXGXGXGXGXGXGXGXGXGXGXGXGXGXGXGXGX[.}.F.k.5.5.5.4.6.6.1 1 ; & * @ @ @ % & % % @ * - - - = GXGXGXGXGXGXGXGXGXGXGXGXGXGXGXGX",
"GXGXGXGXGXGXGXGXGXGXGXGXGXGXGXGXGXGXGXGXGXGXGXA.6., Y Y Y T l.K C + V V V A , < 5 + - - = GXGXGXGXGXGXGXGXGXGXGXGXGXGXGXGXGXGXGX",
"GXGXGXGXGXGXGXGXGXGXGXGXGXGXGXGXGXGXGXGXGXGXK ` P ` T.(.(.T.c. .| b.b.' ^ ~ [ [ ' W D A GXGXGXGXGXGXGXGXGXGXGXGXGXGXGXGXGXGXGXGX",
"GXGXGXGXGXGXGXGXGXGXGXGXGXGXGXGXGXGXGXGX*.} O.B.^.R.z.z.z.c.m.M.b.b.o.M.o.] ^ W ~ ' ~ ! I K.GXGXGXGXGXGXGXGXGXGXGXGXGXGXGXGXGXGX",
"GXGXGXGXGXGXGXGXGXGXGXGXGXGXGXGXGXGX;.z.O.b.B.R.v.v.U.T z.!.W.B.m._ L b.b.+.o.[ W H C W ' &.K.GXGXGXGXGXGXGXGXGXGXGXGXGXGXGXGXGX",
"GXGXGXGXGXGXGXGXGXGXGXGXGXGXGXGXGX>.x.+.o. .} z.R.+X@X@Xv.z.B.V.B.@.] b.o.o.' L W _ F b F ! >.GXGXGXGXGXGXGXGXfXtX6X5XGXGXGXGXGX",
"GXGXGXGXGXGXGXGXGXGXGXGXGXGXGXGXT  .O.{ X.U.^.@X~.Q.#X~.~.W.} ..m.B.m.b.[ ^ ^ ^ J J E G Z M E &.GXGXGXGXGXGXGXlXgX6X0XGXGXGXGXGX",
"GXGXGXGXGXGXGXGXGXGXGXGXGXGXGX>.{ _ { ..W.+X+X+Xx.x.+X~.(.(.N.{ ^ ] ] _ _ ] ] ' J H n G Q Q Q L t GXGXGXGXGXGXfXgX4X5XGXGXGXGXGX",
"GXGXGXGXGXGXGXGXGXGXGXGXGXGX .O.] ! ` Q.@X$X@X~.Y./.%X+X(.W.M.] L D L | | | o.' Q H x n E Q Q M C %.vXGXGXGXGXyXfX4X3XGXGXGXGXGX",
"GXGXGXGXGXGXGXGXGXGXGXGXGXT | `  .T.c.z.+X@X@X$X,XNX>X/.Q...! X.] b.~ L ~ | | [ Q G M F E J Z Q ' _ -.j GXGXGX6XtX5X4XGXGXGXGXGX",
"GXGXGXGXGXGXGXGXGXGXGXGXU X...n.T.W.~.T.c.+X&X1XBX2XQ.c.c.c.b.M.b.| | [ _ L P _ ( Q E E M b P W W P K p GXGXGXyXjX6X0XGXGXGXGXGX",
"GXGXGXGXGXGXGXGXGXGXGX%.X. .T.m.T.W.~.>X$XU./.:X_././.~.~.!.B.b.| x.] ] ] _ C C C E E N z F D C c S $.p a eXqXfXfX0XyXGXGXGXGXGX",
"GXGXGXGXGXGXGXGXGXGXGX;. .T.| X.W.W.%XNXNXE.>.Y.,X>X$X+X~.Z.B.B.] _ | @.@.] ' ~ L x z z C H C D + 7XeX5X3XeXqX0X0XyXyXGXGXGXGXGX",
"GXGXGXGXGXGXGXGXGXGX-.Y.M.M.'  .!.~.:X_._.,XNX:XU.Q.*X+X^.Z.Q.B.] ( b.+.b.o.@.~ J C l k z H P H + t s a 3Xq 3XqXqXfXGXGXGXGXGXGX",
"GXGXGXGXGXGXGXGXGXGXK n.M.B.n.W.!.Q.R.:XNXBXNX1X:XU.R.~.~.!.W.Q.b.o.o.b.b.| ^ L ~ R m m l k D J H H L S , < GXGXGXGXGXGXGXGXGXGX",
"GXGXGXGXGXGXGXGXGXGXK n.B.V.W.W.V.N._.VXVX2X1X1X>X$Xv.z.U.~.(.W.Z.b.o.x.^ ^ ] ] [ Q b v v l l B H L D V Y t GXGXGXGXGXGXGXGXGXGX",
"GXGXGXGXGXGXGXGXGXGX} ] n.V.c.c.E.bXZXdXjXCXmXI.>X%X@X^.z.U.W.W.Z.b.] H ^ ] b.| ' ^ M v v b n C C x z D Y y.< GXGXGXGXGXGXGXGXGX",
"GXGXGXGXGXGXGXGXGXT n._ { x.U.J.nXhXgXgXAXzXgXqXL.,X%X+X~.Q.z.z.] W P ] | ] ' ' ^ G x l b b b M C z k D K y.r GXGXGXGXGXGXGXGXGX",
"GXGXGXGXGXGXGXGXGX*.n...L U.@XmXhXtXzXFXDXDXkXhXeX_.:X~.~.~.Q.T P D ] b.| ' [ / Q G l l N v m n x C J C V p h GXGXGXGXGXGXGXGXGX",
"GXGXGXGXGXGXGXGXGX*.| {  .../.mXjXtXSXDXFXDXhXlXwXE.$X~.W.T.z.Q.Z.x.L H ' | @.' ( G b b v l c l Z J R L S < j GXGXGXGXGXGXGXGXGX",
"GXGXGXGXGXGXGXGXGX*.] n.n. .c.L.CXhXgXAXDXkXhXfX8XQ.~.v.z.T.(.W.B.b.b.] W ! ' ' / G m x l k k b M J W L Y , t GXGXGXGXGXGXGXGXGX",
"GXGXGXGXGXGXGXGXGXT n.m.m.V.x.U.MXCXAXgXgXlXjX8X&.c.v.v.W.Q.T.c.b.b.x.b.O.[ ^ L L F b l k l v M G G H P Y %., GXGXGXGXGXGXGXGXGX",
"GXGXGXGXGXGXGXGXGX*.B.B.Z.!.!.c.c.I.cXpXcXcX;.} v.Z.*X#X!.Q.x.X.^ b.x.O.+.+.o.J m m l k v v M J Q C x P Y Y , GXGXGXGXGXGXGXGXGX",
"GXGXGXGXGXGXGXGXGX*.n.n.+.Z.!.!.c.c.@X:X/.Y.z.^.@X@X@X#X^.R.>.X.] b.b.+.+.+.o.' W z k k v N M J E b C P S , h GXGXGXGXGXGXGXGXGX",
"GXGXGXGXGXGXGXGXGXS b.b./ W.!.~.~.T.Y./.)./.$X@X@X@X).bXMXZXnXnXcXcX;.Y.+.o.' L C M v k k b F J W G W L c j h GXGXGXGXGXGXGXGXGX",
"GXGXGXGXGXGXGXGXGXGX..M.+.Z.!.~.$X+XU..._.>X%X*X$XbXCXZXdXeXq a aXhXCXpX>.W L L Q F N v z k C J J R W m A K.u GXGXGXGXGXGXGXGXGX",
"GXGXGXGXGXGXGXGXGXGXP n.m.V.W.W.R.R.:X$Xv./.%XoXcXSXqXo .       . X a AX8X) ' ( E M B 8 7X7X7Xs S G m B %.d.r GXGXGXGXGXGXGXGXGX",
"GXGXGXGXGXGXGXGXGXGX*...m.m.B.x.Q.&X,X>X@Xv.+XI.gXhXX               . 8XjX:.( ( E #.3XrXyXtX4XrX0X#.H P A.aXGXGXGXGXGXGXGXGXGXGX",
"GXGXGXGXGXGXGXGXGXGX-.X...| ] n.@X;X1X;X;X@XR.cXAX7X                  a lX-.[ ( ) 7XrXyXhXDXgX5XrX7XT Y K.aXGXGXGXGXGXGXGXGXGXGX",
"GXGXGXGXGXGXGXGXGXGX-.>.W _ B.Z.Z.*X^.Z.;X;X&XmXSX6                   7 AXwX/ ( R 3XtXtXDXSXSX0X0XeXU %.aXg GXGXGXGXGXGXGXGXGXGX",
"GXGXGXGXGXGXGXGXGXGXGXI ] ` n.!.Z.;XV.n.;X;XoXnXCXX                   6 AXwX) ( W a 4XtXtXzXlX4X4Xs S Y d.GXGXGXGXGXGXGXGXGXGXGX",
"GXGXGXGXGXGXGXGXGXGXGXS b.b...Z.#X#XZ.Z.&X;XOXjXAXo                   6 AXtX:.( R #.3XrXyXyXyX6XeX$.Y , , GXGXGXGXGXGXGXGXGXGXGX",
"GXGXGXGXGXGXGXGXGXGXGXGX..M.n.x.Z.#XZ.;X&X#XoXnXSX6                   7 AXwXI Q G G n 8 a s s $.) T A., GXGXGXGXGXGXGXGXGXGXGXGX",
"GXGXGXGXGXGXGXGXGXGXGXGXK M.M.m.b.V.Z.#X*XZ.U.dXZXO                   7 lXwXI ( E E G G b E E Q ) A.d.t GXGXGXGXGXGXGXGXGXGXGXGX",
"GXGXGXGXGXGXGXGXGXGXGXGXGX<.<.>.*.X.z.C.C.Z.Y.jXlXX                   q lXwXI | ` W D Y I <.:.:.*.G.A.%.j GXGXGXGXGXGXGXGXGXGXGX",
"GXGXGXGXGXGXGXGXGXGXGXiXiXpX=.=.;.*.A.Y J.OXOXnXjXo                   7XlXwXY.x.z.z.l.T ;.;.uX,.L.p S.A.-.GXGXGXGXGXGXGXGXGXGXGX",
"GXGXGXGXGXGXGXGXGXGXGXGXiXpXuX=.*.Y J.J.J.OXC.bXvXo                   eXzXmXU.v.x.C.Y.,.=.t ;.bXK.%.K.K.K.GXGXGXGXGXGXGXGXGXGXGX",
"GXGXGXGXGXGXGXGXGXGXGXGXGXiXiXpX-.6.J.E.].C.C.P.nXo                   7 ZXI.T z.z.R.S.,.%.-.pX;.L.I.I.K.GXGXGXGXGXGXGXGXGXGXGXGX",
"GXGXGXGXGXGXGXGXGXGXGXGXGXGXGXGXGXK.P.=XOXoXE.P.qXq 0 0 9 9 9 7 9 0 0 q qXcXOXOXoX].S.L.L.uX8XGXGXGXGXGXGXGXGXGXGXGXGXGXGXGXGXGX",
"GXGXGXGXGXGXGXGXGXGXGXGXGXGXGXGXGXGXGXGXGXGXh h f h d.d.h r g d f y.u d g d K.1XGXGXGXGXGXGXGXGXGXGXGXGXGXGXGXGXGXGXGXGXGXGXGXGX",
"GXGXGXGXGXGXGXGXGXGXGXGXGXGXGXGXGXGXGXGXGXd f f u y u u g y h h h f f u e e y GXGXGXGXGXGXGXGXGXGXGXGXGXGXGXGXGXGXGXGXGXGXGXGXGX",
"GXGXGXGXGXGXGXGXGXGXGXGXGXGXGXGXGXGXGXGXy g u h u e y y d g P.vXP.P.d.u e e d w GXGXGXGXGXGXGXGXGXGXGXGXGXGXGXGXGXGXGXGXGXGXGXGX"
};
