/* XPM */
static char *result[] = {
/* columns rows colors chars-per-pixel */
"64 64 55 1 ",
"  c #144606",
". c #164806",
"X c #1B4D06",
"o c #134609",
"O c #1F4F08",
"+ c #1E5106",
"@ c #1E5108",
"# c #235506",
"$ c #295707",
"% c #265905",
"& c #2B5D06",
"* c #235508",
"= c #285708",
"- c #265909",
"; c #2B5C08",
": c #305F07",
"> c #305F08",
", c #2E6106",
"< c #2E6108",
"1 c #326506",
"2 c #386707",
"3 c #366906",
"4 c #3B6D07",
"5 c #346508",
"6 c #386709",
"7 c #366908",
"8 c #3B6C08",
"9 c #3E7106",
"0 c #3E7108",
"q c #406E09",
"w c #427507",
"e c #467907",
"r c #4A7D07",
"t c #437409",
"y c #487609",
"u c #477908",
"i c #4B7C08",
"p c #507F07",
"a c #517F0A",
"s c #4E8107",
"d c #4F8008",
"f c #528407",
"g c #568906",
"h c #5A8D07",
"j c #538409",
"k c #58870A",
"l c #568908",
"z c #5B8B09",
"x c #5E9106",
"c c #5F9008",
"v c #619407",
"b c #679907",
"n c #6C9D06",
"m c #619208",
"M c #669808",
/* pixels */
"03ihj877;4,3dtw977,44<14i94wffew4ijw0%#&#7itt481<7311wi48ww;79r0",
"81rri7<,#&3gjt9,7;%97%4j778q4w488hje&%9,7hjw0,8-;91%9s17741%8f33",
"<,44t7<-+%ecy13<3+1t71i4;11#%,1;yf41&4e9fkt13&7X7t15i7&,,1+1r8&1",
"&&;1t-+-;9ed61-,<<9780wq%##&;##19w;,,4;1ri5;-1%1077yy4-+#+.tw0$O",
"9#<70<0u8wwy47;134#4rj4i#X373;-781#;%&,7et81;1<7+9ij4y+X.#8k8y#+",
"7177<8c047ryii818wwiht3j%,8pjj871#;r1%,9jiir73899jh49j&.Ofxq1j,;",
"sd08<uldw4rzjhi84r8zf5eg1wsmjv4iX8s8%%4hjhjhe88i9cd3rf&<yhfqrg,r",
"cluy0ulli8jj8fj;7wrhrqfi1hhkfj7i3hf,,&fhka4jj<94ecu0g01hde8wfr3h",
"iijjiwjj09s84gw8fjhkjiuirmafh81jhp4&&4rzf2qhq8hjhjjirrrc09iirisx",
"welcwuiw;70uiy0lnjhzjyuyyzrry1rfrq3%184fyrwywhbfzkjuryii4iw4euuj",
"w9dky87879et4tizhwvhi786fhiiqyu848w34&8iaw3wrhzwmci185fw187743si",
"99wli81ij815rwrhwwhpq1<4frjhir73&14fw586i8w8fzwwhiw<1qw;1t8118uy",
"r47i099xy-%if,ru6tr8i47e8&jk48;&O:piwy4-f9w:iy8wr8i87w;@sf#%7w5&",
"e78qy4ru7#9f8&w48443hc48&4ih2;#;;rjz7i81i931w84446cz111yfk38313w",
";w43utt7@#98&&wi7;-ymjq18wqj1=#rfhhp1fi9838wwr;,%pmf178ifjwi136w",
",w1;7ui901317081%=1hj56$#48r;#&hMjzqwx88w8ww2:##6hp83;,rjw847;:3",
"8w911llj818&&w<7+*wki<;.#;44;3wvkwhfkj4tf;-w<1+%iji3&#1w48;11-1-",
"1w9iuju7;69+%tu7.&8ru,= .%1%wwrfqehMri46%#,ed<.,yfi;%+&&1#;11X##",
"$78f8w,##81#1jh=X3wr1*Xo1;%,w3w8qrjkhc4OX%wxz*+8ir:#+#7-@X1&&#41",
"%87uw:O#%;4rdhy@44w8O**thw&,31qriwtjzmy#3sfkw&9742##%ij@.<<-,dht",
"*17t1>4u%1jiai7wi517;89cf1#&9dryw84rhkq&jrrr6re<53,84z0#+&349hj4",
"%;i8#if7#rj4y4wsu;1u7,rz8##%ijl0a;3rrw3ri7y8efu75t1;sk8+#%,1shy1",
",3j=$w4;4zr1ru9ruiuct8gz9%,1fgk9f;18418h33rrwruiaz48hj8+,#%3hk8+",
"xg4O674%wff44,,rlzgd8rgi,,ghjgyem41;1&sh98433ihkza7ihy=,s5,rhr&,",
"xf%=<-7,8ri7%41fzirtwwy6;shfry7fmu80-1siu8&93fhurttwy7,sxw9uu81e",
"s9177%&17r4&308fr44ii72;wrfw00svjik47071t,49wfu18ie331wrd870019i",
"t89w0&,,38#%9www474gj3>4iarwtisswi8=91%,t&9tew43qgi1-tiiu87971ui",
",1tw,09#%=#w9wu993wsj;5w811813ttwj8877<;i089w903wfa=7w87119,8883",
"-,y11ks7##1,3wii,,8ri138;&%,+1eejhr349318<1tdw904ri147,-;-,,77--",
"+,;,dlr,X;4,&ejj+<9l8-<%%=+%&3igfr77<777,,,djdwt1w5$<%@*%+@-,%#=",
"+;1erw1%%713,sh8@eky=,<87,@,,esiw49;%9,,%,5sc5ey17O;<77-@@*-<87<",
"#<3091&%17194fr19vy&;9<uj,#e1rr87q9733%#399gi1si;==4<ri@ 459,rg1",
"%11;:53r3&wwwr89gy1u8#&r9+%w&w77%trzr%#&eere2wk0,i8%3s# #0<-1s9%",
"1,w7&hhw&3w,49idd9ii3%93rX&71rit8kka8#17eewwuiiwsi3,w30X,,,794r&",
"&7w:wky&%&8%4wfzdd91,,31fX&4ehifffq:#,41r49egjji411179r&57ed73r&",
"1,3wrw&XX3;749hyii&&&33sr%,usjfr4t5XX4919433htsi,,&41rf37wg0&es&",
"8&3ww1%X&1:fwfj;rj&&3e4sz34fryr67f1##e39ww%rr1rf&%1w9gf19ww43gg#",
"0;781$&w31wier21lw&7413hj&9s6t877f8jr4,wjw9r29h8&33&3xr,wr4%3hr#",
"0<17#2ww33f13wwwr4rw;#9jg,931y46yeyay%,4i-3wwrr4r7&%esg191##9dg,",
"5<e<%43&:ei,www4urir%,8wf,3%7uj7j458-=1ey;ww84errw&34ef11#+,9ej,",
",3d+&,5#8hi7q1=4tsjz8wri8%,&ilj>j1=##=qr&3q,,wwafh3wwew1%.#9ee0+",
"0l8#%#7,ejr3#%%rgzki3fkj,%rsfg44c7%##%w1;8&&,rhjfi9hkf%413ehlj,%",
"gd,+@07,2iy1&33fhretrfiw,eglrw5gh448#59w41,34fherwffy8&gjilgr9,w",
"u8-7fs&,4i3%344fe44wey4;1rfrwwjhjrg73441%%439fw78yww4$1siiwy8,3r",
"470hzj1,t6#,iwww77144353yi98rfsrqij10%##X,i4yw87:44373rwwww553ww",
",8sriz;-7##fa44344847%7fw7104ww88kli1+,%3hi8414;;85%8f41283=4f83",
"=193ii-<#Xwha14;w9;7,1r8117;=,1;tfq<%,r9fhr14;7+;1;5r8&1:1#:iq%7",
"#&<,y1%#&wii81;,s<#<88w8-=+#&#%1ww=-1871sr61-1&X%4ww8&&#%#X8w8;O",
"7*;50*7u9wwu43-78%@3wg7i#+717-=741#;&,;4wt8-%1#&7jej%+17X+5j0u%.",
"1;751,g095eyjew7&14rhi4f%,9eud731#*w1;14pyyr7,3drjhy%4f;.uzy5j&%",
"0i051eltt7dgkhd17r4hj8eh3eimjx0u#=rw&%2fahahu7r48fj4wx3%0cjwwg&e",
"clut0ujkewslyfj;1erhi8sr1gcjsk3i-ih,+%rchjwfj,w17hi8gw1gsr0tge,g",
"jdgdd0jhu0dq8geX9fhjririexaphq2jdlt7%3rhk8qhwXrifhiirirvw9iiiirx",
"ticcuich18ytir7rnkhyiwyrrftffyrhccr%#wfhywri6rndjyi4wria8sjjeryj",
"u0glisct<9jy89sMnfk35;84efrifzhvsf9#%wrprw88fnnrj83%43ry8igu46ef",
"80usisw89u44rsvkcfh3%798fiwrfjkr4yew:waqiy3fvzhhk3#30yjw1if480jy",
"0<9ww4;;174usffigkh1,e7rjwuuwyr27fja1e4&glrfsihkg&,y3fjyuiw73rf;",
"8-17,=,u17riieqrfir00u0g41i92t234jikj7%8fieetrgii48ywh34u811wf8#",
"57-#;<97;8d0wwreuyj4;,si1-t11iq7iywiw=18fe9wawywf7>3ri%;t;#&sr;#",
"5rO.=17&;iy1uu84yiii;,te11<#4yk4j3>7%%>iw3ey44trii%,yw--,+#7et;&",
",j7@#<77wh718%-wwjjh0edi4&1,rhi3j1####ty%,3%#0ijjk0udi1#1;1rdi1%",
"tj4+X=31re%,%&&ihhfi9gjj1;iuff68c1X..;w,77#%;ihjli9hjf,,dwehjj&&",
"fe;X#y57w8,,,94fgeeysftw1ejdiq4mz48w#79w9&&48gfreusft93rjdffw81e",
"w0*9hi*64w7%9wwsw74tww8,3itwwihhaij70311%#44wf944yww4&3ryiww8,3s"
};
